<svg width="512" height="512" xmlns="http://www.w3.org/2000/svg" xml:space="preserve" enable-background="new 0 0 512 512" version="1.1">

 <g>
  <title>Layer 1</title>
  <path stroke="null" id="svg_1" d="m1,-73.74218c0,24.93328 0,49.86656 0,74.81134c165.23782,0 330.47566,0 496,0c0,-24.87766 0,-49.76685 -0.39746,-74.73446c-2.25836,-0.02312 -4.28961,0.13827 -5.93694,0.06041c-2.02914,-0.09591 -4.66684,-0.32851 -5.32906,-0.6176c-0.684,-0.29858 0.02516,-0.84315 1.34308,-1.08242c1.33745,-0.24281 4.1341,-0.29356 6.34856,-0.33203c1.26536,-0.02198 2.64414,0.14831 3.97182,0.23203c0,-2.88003 0,-5.76006 0,-8.63891c-165.33336,0.0012 -330.66667,0.0012 -496,0.0012c0,2.83312 0,5.65777 0.36355,8.56586c0.9441,0.03622 1.55509,-0.00246 2.10012,-0.05965c2.92058,-0.30648 5.87098,-0.24662 7.77144,0.19356c1.25145,0.28986 2.04591,0.75973 1.67788,1.10621c-0.61113,0.57534 -3.57539,0.73119 -6.79256,0.65672c-1.71807,-0.03976 -3.41434,-0.10727 -5.12044,-0.16225m299.17384,20.35439c-0.3035,-0.13179 -0.607,-0.26359 -1.45193,-0.44774c-0.46561,-0.14897 -0.93124,-0.29794 -1.87099,-0.51175c-0.7493,-0.20208 -1.49863,-0.40416 -2.51944,-0.70637c-0.69883,-0.25484 -1.39766,-0.50968 -2.59947,-0.94793c5.3135,0.34209 9.43047,0.60716 14.0914,0.88843c0.45182,0.04794 0.90365,0.09587 2.04254,0.16698c7.21496,0.71479 14.42988,1.42959 22.17222,2.19784c1.11722,0.20497 2.23444,0.40993 3.93168,0.66521c1.10031,0.20511 2.20061,0.41021 3.78365,0.66084c0.47784,0.09456 0.95568,0.18912 1.94636,0.33312c0.78061,0.14894 1.56121,0.29787 2.84396,0.52c2.61496,0.43529 2.79361,1.3359 8.57401,1.1696c1.48109,-0.06854 2.96216,-0.13708 5.23798,-0.23952c6.51908,0.01134 13.03818,0.02267 20.22555,0.02899c1.40768,0.09801 2.8154,0.19603 4.77859,0.31177c0.82658,0.07302 1.65315,0.14605 3.10054,0.25649c0.73156,0.07708 1.46309,0.15415 2.83213,0.25032c1.26533,0.13736 2.53068,0.27473 4.27063,0.4688c0.95254,0.17079 1.90512,0.34159 3.34365,0.55784c0.47958,0.09489 0.95914,0.18979 1.98116,0.3393c0.79261,0.20431 1.58518,0.40863 2.89844,0.66616c0.46747,0.14773 0.93496,0.29545 1.92923,0.49681c0.71544,0.20676 1.43089,0.41351 2.30956,0.74488c3.43826,1.47798 4.44798,2.98362 1.83237,4.64038c-0.25818,0.1319 -0.51636,0.26381 -0.82084,0.51287c1.64033,0.31115 3.28065,0.6223 5.53174,0.97464c0.75311,0.13067 1.50622,0.26134 2.8648,0.40609c0.76405,0.1052 1.5281,0.2104 2.77732,0.36261c0.47888,0.09652 0.95775,0.19303 1.9459,0.35883c7.00032,1.48522 10.23638,3.17124 9.50938,5.14052c-0.1924,0.0936 -0.3848,0.18719 -0.481,0.42433c-0.04656,1.98835 -6.15987,3.4296 -14.58416,4.75138c-0.19708,0.04585 -0.46159,0.06903 -1.384,0.12689c-1.68107,0.20667 -3.20852,0.48092 -5.07524,0.60591c-3.84819,0.25765 -5.18873,0.57715 -4.17569,1.35272c4.95621,3.79444 -8.75866,7.57204 -30.16994,8.75888c-8.43901,0.46778 -16.90591,0.45844 -25.30357,0.1153c-15.352,6.94965 -67.60443,8.33123 -98.01189,3.35338c-0.48934,0.05945 -1.0295,0.11559 -1.50715,0.1845c-11.64996,1.68073 -25.25029,2.48226 -40.29957,2.54899c-14.62825,0.06486 -27.77681,-0.68848 -39.65531,-2.34762c-0.78512,-0.15152 -1.57025,-0.30305 -2.9087,-0.51084c-1.44368,-0.31611 -2.88735,-0.63222 -4.88773,-1.00796c-1.29007,-0.36075 -2.58017,-0.72149 -4.20326,-1.17219c-0.892,-0.24547 -1.784,-0.49093 -2.43772,-0.67083c-3.6851,0.0738 -6.92002,0.13859 -10.75647,0.25997c-1.08484,0.0366 -2.16968,0.0732 -4.10375,0.12628c-7.97516,-0.00901 -15.51547,-0.30115 -23.00312,-1.03803c-1.11191,-0.14379 -2.2238,-0.28759 -3.99098,-0.45492c-9.94141,-1.30356 -17.19246,-2.88157 -18.26072,-5.2132c-0.08125,-0.14356 -0.1625,-0.28712 -0.34022,-0.58151c0.93166,-1.16194 1.86331,-2.32388 2.24603,-3.51016c-0.46456,-0.04972 -0.92912,-0.09944 -2.0715,-0.17165c-7.24514,-0.57459 -12.72068,-1.52346 -16.65543,-2.66121c-11.21533,-3.24298 -6.02711,-7.40718 11.97723,-9.54726c4.25615,-0.50591 5.02942,-0.90217 4.14383,-1.77612c-2.6473,-2.61248 0.35229,-4.99642 13.12416,-6.89718c0.89068,-0.12369 1.78135,-0.24739 3.25358,-0.4303c3.98693,-0.32633 7.97385,-0.65266 12.31874,-1.0533c0.54075,-0.01591 1.0815,-0.03182 2.25512,-0.06592c0.42579,-0.00709 0.85158,-0.01419 1.71844,-0.10035c0.83025,-0.01591 1.66048,-0.03181 3.38878,-0.06427c6.19265,0.11453 12.48941,0.14786 18.536,0.37628c3.24396,0.12254 4.56927,-0.0419 6.34433,-0.41554c3.91688,-0.82449 7.77835,-1.66971 12.24466,-2.40183c11.9229,-1.9544 26.62049,-3.02761 42.69985,-3.81238c0.49037,0.08526 0.98073,0.17052 1.30027,0.36621c-0.43476,0.1474 -0.89684,0.29264 -1.29998,0.44255c-3.40028,1.26439 -8.68025,2.12762 -16.31326,2.70378c-6.18722,0.46702 -11.90652,1.17346 -17.25198,1.89976c-9.60019,1.3044 -15.29889,3.03606 -16.43813,5.14496c-4.62404,-0.58057 -8.94768,-1.12342 -13.85846,-1.67948c-0.79141,-0.09704 -1.58282,-0.19406 -3.19202,-0.30265c-4.53697,-0.05093 -9.07393,-0.10187 -14.09564,-0.06883c-1.77994,0.08108 -3.55988,0.16216 -5.76046,0.32744c-1.77312,0.13622 -3.54624,0.27244 -5.65076,0.50398c-2.17279,0.3601 -4.34559,0.72021 -6.63414,1.19689c-1.64232,0.73153 -3.28464,1.46307 -4.83131,2.32626c-0.03208,0.17647 -0.06414,0.35294 -0.00079,0.67267c-0.23897,1.59357 4.95614,2.73739 11.04902,3.86581c0.05956,0.01725 0.18997,0.04566 0.16715,0.04993c-0.14578,0.02726 -0.32528,0.04921 -1.35373,0.08923c-3.55105,0.06995 -7.1021,0.1399 -11.04972,0.2941c-1.19639,0.06272 -2.39277,0.12545 -4.17768,0.2442c-0.26527,0.03065 -0.51943,0.0647 -0.7974,0.09147c-9.63591,0.92783 -14.33026,2.44083 -14.83137,4.23582c-0.47667,1.70751 4.40011,3.1042 12.93975,4.18832c1.75569,0.19482 3.51141,0.38964 6.00376,0.5986c1.67636,0.06528 3.35274,0.13055 5.59018,0.18891c0.47381,0.04314 0.94761,0.08628 2.21654,0.13908c2.30234,-0.04414 4.60469,-0.08828 7.51625,-0.14808c0.80262,0.01972 1.60524,0.03944 3.81685,0.09379c-2.03762,0.14348 -2.70314,0.19034 -3.69887,0.33241c-2.14427,0.355 -4.28854,0.70999 -6.56441,1.17213c-0.61644,0.18605 -1.23289,0.37211 -1.94286,0.68183c-1.25065,1.06209 -2.50128,2.12417 -3.28387,3.26144c0.08098,0.14359 0.16196,0.28718 0.35271,0.5387c0.04921,0.07255 0.09843,0.1451 0.58031,0.27911c0.09269,0.09279 0.18538,0.18557 0.60709,0.38094c4.21343,1.35348 9.6153,2.5 18.92357,3.11751c2.35005,0.1002 4.70008,0.20039 7.5561,0.28876c0.17017,0.00056 0.34035,0.00113 0.99246,0.01594c0.20592,0.04231 0.41183,0.08462 1.40864,0.13125c2.85692,-0.06072 5.71382,-0.12145 9.0375,-0.27494c1.17812,-0.02454 2.35623,-0.04909 3.9542,-0.15876c2.41201,-0.24397 4.82403,-0.48794 7.47944,-0.79914c0.19833,-0.04602 0.46423,-0.06896 1.34525,-0.11932c0.93545,-0.11231 1.87094,-0.22463 3.00081,-0.36028c1.21355,0.85036 2.2993,1.61117 3.86936,2.44008c0.72247,0.25734 1.44494,0.51469 2.52222,0.87002c4.23277,1.20735 9.99991,2.14223 17.21438,2.80583c12.90334,1.18689 26.39607,1.12266 39.64762,0.31437c14.20099,-0.8662 23.66003,-2.49948 24.39108,-5.2658c0.02837,-0.10735 0.47881,-0.21142 0.73256,-0.31702c0.84881,1.75497 4.4923,3.25056 11.81631,4.43159c7.29894,1.17699 16.4611,1.78957 26.18123,1.88885c29.75648,0.30393 45.83053,-2.38287 51.08701,-7.25531c15.50488,1.86056 28.30259,1.44962 39.59979,0.08013c8.20857,-0.99508 12.43949,-2.48858 12.74801,-4.18634c0.30211,-1.66243 -3.8206,-3.11009 -10.69347,-4.36931c9.76126,0.40493 17.72557,-0.1738 25.60042,-1.12688c1.20901,-0.19483 2.41803,-0.38967 3.9064,-0.67847c0.86995,-0.18947 1.73989,-0.37895 2.72206,-0.68378c0.91187,-0.34622 1.82374,-0.69244 2.80527,-1.18042c0.30572,-0.55749 0.61144,-1.11499 0.48443,-1.73391c-0.09289,-0.09277 -0.18576,-0.18554 -0.37727,-0.39883c-0.0379,-0.12152 -0.07583,-0.24305 -0.59322,-0.44008c-0.1721,-0.14481 -0.34419,-0.28963 -1.01396,-0.50863c-4.24632,-1.74958 -12.28141,-2.68684 -23.4018,-3.10107c-0.72222,-0.00519 -1.44441,-0.01038 -2.84083,0.00027c-1.09833,-0.02254 -2.19669,-0.04507 -3.78787,-0.07773c2.75373,-0.53691 5.02621,-0.97999 7.40126,-1.53089c0.61292,-0.18613 1.22584,-0.37225 1.9315,-0.65144c0.27852,-0.07724 0.55704,-0.15447 0.91254,-0.34824c0.38236,-0.18031 0.76467,-0.36063 1.04902,-0.68756c0.03275,-0.3935 0.06554,-0.78701 0.00166,-1.31764c-0.05951,-0.22991 -0.11903,-0.45982 -0.64287,-0.76352c-0.16745,-0.14122 -0.33487,-0.28243 -0.97915,-0.4988c-0.78037,-0.30266 -1.56073,-0.60531 -2.73129,-0.9499c-0.2674,-0.03386 -0.40251,-0.07932 -0.70876,-0.23646c-4.3297,-0.91987 -9.7782,-1.56147 -16.94269,-1.92616c-0.75506,-0.05755 -1.51013,-0.11509 -3.13493,-0.1561c-2.90326,0.00512 -5.80652,0.01024 -8.95304,0.08144c-0.19533,0.04532 -0.4572,0.06832 -1.52354,0.08907c-2.34548,0.11958 -4.691,0.23916 -7.36052,0.45024c-1.50566,0.19087 -3.01129,0.38174 -4.71459,0.6392c-0.17697,0.04147 -0.40541,0.07132 -1.00056,0.18339c-1.51536,0.24539 -3.03069,0.49077 -4.74959,0.7853c-0.23755,-0.01859 -0.47512,-0.03719 -0.8062,-0.1886c0.0314,-0.17801 0.06279,-0.35601 -0.02915,-0.60749c0,0 -0.09251,-0.07478 -0.57313,-0.15069c-0.09064,-0.14592 -0.18128,-0.29183 -0.6541,-0.54269c-2.52742,-0.84692 -5.05483,-1.69384 -8.13758,-2.59744c-1.12553,-0.26145 -2.25103,-0.52289 -3.82425,-0.79432c0,0 -0.44407,-0.01397 -0.92949,-0.02872c-0.2081,-0.04268 -0.41619,-0.08535 -1.15858,-0.18659c-6.86838,-0.76917 -13.73672,-1.53833 -21.19723,-2.33301c-1.0599,-0.14712 -2.11977,-0.29425 -3.45121,-0.53851m-10.48826,-20.03228c-1.00984,1.57144 -1.9592,3.14413 -3.04586,4.714c-1.17768,1.7014 -2.48783,3.4001 -3.73179,5.10015c-1.24494,1.70144 -3.00283,3.39852 -3.51116,5.10649c-0.27938,0.93868 -3.15707,1.87881 0.46667,2.87167c8.53998,2.33985 16.41116,4.75125 24.71001,7.11747c16.92474,4.82572 33.99216,9.6367 50.87117,14.4671c1.49442,0.42766 2.62007,0.9431 2.90902,1.4352c0.71163,1.21183 -4.52031,1.80755 -9.25961,2.48161c-7.48976,1.06524 -15.26367,0.6607 -20.38855,-0.43848c-6.5427,-1.40328 -13.14193,-2.7988 -19.71235,-4.19828c-7.76056,-1.65297 -15.46458,-3.31386 -23.29361,-4.95722c-4.7327,-0.99342 -9.6561,-1.96007 -15.39875,-3.12182c0,0.79194 0.22605,1.33974 -0.03878,1.88046c-1.19983,2.44953 -2.54628,4.89694 -3.82324,7.34537c-0.59675,1.1442 -5.71289,2.31357 -12.91192,2.12085c-2.9942,-0.08015 -6.12195,-0.01291 -9.18896,-0.01341c-6.70868,-0.0011 -10.527,-0.36646 -11.68957,-1.51001c-1.65981,-1.63267 -2.07707,-3.30256 -3.02335,-4.95658c-0.71753,-1.25415 -1.43241,-2.50835 -2.21275,-3.87507c-13.61755,2.33663 -26.6508,4.56318 -39.60945,6.80246c-3.96476,0.68511 -11.10291,1.01435 -16.34013,0.29852c-1.73548,-0.23721 -3.41767,-0.48702 -5.21322,-0.70996c-6.98131,-0.86682 -8.20104,-2.01252 -3.73937,-3.2421c5.42365,-1.49469 10.61866,-3.01389 15.88546,-4.52527c12.07151,-3.46409 24.14881,-6.9276 36.16694,-10.39715c2.06851,-0.59717 5.39851,-1.21819 5.46273,-1.8364c0.14609,-1.40644 -1.30248,-2.81942 -2.23712,-4.22711c-1.14974,-1.73164 -2.4649,-3.46003 -3.65307,-5.19095c-0.79917,-1.16421 -1.47369,-2.33092 -2.25503,-3.49551c-1.1607,-1.72997 -2.36655,-3.45906 -4.46087,-5.1973c-50.83945,-0.00151 -101.67891,-0.00298 -152.51836,-0.00476c-1.61383,-0.00006 -3.2377,0.01589 -4.83957,-0.00876c-4.32281,-0.06652 -6.52419,-0.78549 -4.54248,-1.45204c1.93621,-0.65123 5.34419,-0.70436 9.05285,-0.70423c129.60062,0.00449 259.20125,0.0035 388.80189,0.00448c6.19778,0.00005 9.9158,0.43881 9.94101,1.15905c0.02487,0.7106 -2.77818,1.00109 -9.67174,1.00169c-51.32323,0.00447 -102.64649,0.00887 -153.95713,0.15586m-26.30088,-6.31063c14.67698,0.00091 29.35401,-0.00051 44.03092,0.00431c3.84451,0.00126 7.02332,0.47794 7.15603,1.05142c0.1288,0.55643 -3.11844,1.10554 -6.76183,1.10592c-39.1924,0.00414 -78.38482,0.00456 -117.57713,-0.00595c-1.31877,-0.00035 -3.34049,-0.06007 -3.81497,-0.20764c-1.15786,-0.36012 -2.39077,-0.80364 -2.13702,-1.18504c0.35091,-0.52743 2.8411,-0.77405 6.26165,-0.76933c15.12784,0.02086 30.2572,0.00903 45.61736,0.00903c0,-0.29796 0,-0.52824 0,-0.83198c-7.5739,0 -14.96034,0.01726 -22.34231,-0.00646c-4.44513,-0.01429 -6.70369,-0.45943 -6.45513,-1.21467c0.22259,-0.67634 2.53105,-0.94404 6.34518,-0.94303c24.51535,0.00645 49.03084,0.00041 73.54609,0.01126c1.32999,0.00059 3.42663,0.04993 3.83931,0.19097c1.11429,0.38085 2.57877,0.88834 1.88852,1.22317c-0.67069,0.32535 -3.78134,0.68509 -5.92748,0.70598c-8.32436,0.08099 -16.69133,0.03296 -25.73901,0.03296c0.48157,0.33528 0.82578,0.57493 2.06982,0.82911m76.18101,0.00261c3.21398,0.00004 6.4285,-0.00645 9.64177,0.0017c4.46521,0.01133 6.37599,0.35246 6.36408,1.09808c-0.0113,0.70547 -1.93649,1.06595 -6.1257,1.06326c-7.87409,-0.00506 -15.74843,-0.00482 -23.62254,-0.00004c-4.17575,0.00253 -6.12085,-0.35309 -6.11414,-1.06074c0.0071,-0.74932 1.90439,-1.09113 6.36006,-1.10034c4.17755,-0.00863 8.35618,-0.00189 13.49648,-0.00192m-167.95993,2.1617c-7.55912,0 -15.11837,0.00462 -22.67731,-0.00177c-4.42731,-0.00375 -6.48964,-0.35444 -6.49086,-1.077c-0.00124,-0.72703 2.03786,-1.07635 6.49269,-1.08077c7.55887,-0.00749 15.11929,0.01114 22.67682,-0.00776c3.73491,-0.00934 6.18947,0.22476 6.64654,0.88863c0.54183,0.78703 -1.13293,1.14115 -6.64787,1.27868m-14.37765,67.52732c0.96918,0.24564 2.10088,0.47714 2.87559,0.73968c1.95163,0.66138 0.71647,1.33678 -2.11333,1.72019c-2.26038,0.30627 -6.19144,0.43957 -9.12593,0.36273c-4.02507,-0.1054 -6.45777,-0.6361 -6.51692,-1.42093c-0.10367,-1.37598 5.88742,-2.00113 14.88059,-1.40167m-137.29902,-63.87043c-2.56258,-0.80089 -1.27065,-1.6835 3.12117,-1.77329c4.20036,-0.08587 8.6615,-0.02604 12.79222,0.13391c1.59631,0.06182 3.54919,0.56953 3.61263,0.88436c0.06726,0.33378 -1.81615,0.95921 -3.02345,0.97209c-5.27735,0.05633 -10.61855,-0.06349 -16.50257,-0.21707m442.46264,0.30934c-3.33942,-0.22824 -4.6256,-0.65279 -4.0151,-1.25191c0.65309,-0.64092 3.50131,-0.84726 6.67337,-0.86238c3.49446,-0.01664 7.053,0.03128 10.4985,0.13468c3.63943,0.10922 4.71505,0.67153 3.73377,1.14383c-0.72916,0.35095 -3.30704,0.73372 -5.44756,0.81993c-3.3636,0.13547 -7.05232,0.03313 -11.44297,0.01585m-424.99628,46.9369c1.24693,-0.01655 2.49384,-0.0331 4.08382,-0.05421c-0.87606,-0.28542 -1.63286,-0.53198 -2.45696,-0.80047c1.24419,-0.10922 2.30387,-0.20225 3.62674,-0.31838c0.89212,0.31705 1.68445,0.59863 2.50555,0.89043c1.07369,-0.31844 2.13588,-0.63347 3.14833,-0.93374c4.41015,0.35709 1.82857,0.75096 0.42572,1.16704c2.00694,0.01994 3.66379,0.0364 5.22636,0.05193c1.39698,0.97466 -3.24308,0.48283 -5.06223,0.71111c1.21548,0.37421 3.97778,0.80712 -0.70403,1.08646c-0.98922,-0.27401 -1.94797,-0.53958 -2.97037,-0.82278c-1.0033,0.2976 -1.86326,0.55268 -2.74721,0.81488c-1.28773,-0.12729 -2.3568,-0.23296 -3.42429,-0.33848c0.83874,-0.26873 1.59803,-0.51201 2.54809,-0.81641c-2.67818,0.00374 -5.49644,0.13437 -4.19951,-0.63739m350.25114,24.86628c1.72254,-0.06304 3.44505,-0.12609 5.15517,-0.18868c-0.87931,-0.28892 -1.66569,-0.54731 -2.54019,-0.83464c1.34217,-0.09739 2.42814,-0.17619 3.38832,-0.24586c1.08594,0.30248 1.97584,0.55035 2.90717,0.80975c0.83506,-0.3121 1.52712,-0.57076 2.19116,-0.81893c6.19742,0.2948 1.72076,0.74651 0.74054,1.13149c5.50498,0.05481 5.50498,0.05481 4.75196,0.70418c-1.49278,-0.05963 -2.97798,-0.11895 -4.04376,-0.16153c0.29969,0.36582 0.58714,0.71675 0.87462,1.06769c-1.73481,-0.15609 -3.46965,-0.31218 -5.26311,-0.47355c-2.49883,0.64965 -2.49883,0.64965 -5.27941,0.24604c0.84208,-0.26142 1.68411,-0.52284 2.36582,-0.73449c-1.62546,-0.36645 -5.26465,0.5944 -5.2483,-0.50147m64.66841,-20.60189c1.82991,0.51099 1.26932,1.0504 -1.40632,1.30523c-2.0092,0.19135 -5.56491,0.22004 -7.46344,0.0324c-1.58823,-0.15697 -2.45442,-0.73795 -2.34498,-1.12025c0.07548,-0.26367 2.3213,-0.70986 3.66743,-0.71766c2.3616,-0.01369 4.77703,0.24635 7.54732,0.50028m-445.48915,8.59747c-0.17158,-0.75684 2.65988,-1.02705 6.35499,-1.0614c4.12114,-0.03831 5.62272,0.5161 5.99502,1.06848c0.40571,0.60196 -1.8781,0.98439 -5.37975,1.05678c-3.96217,0.08191 -6.50007,-0.20939 -6.97026,-1.06387m483.52021,2.64965c-3.8277,0.58448 -8.0371,0.60538 -10.3372,0.05134c-2.21107,-0.53259 -1.53906,-1.2601 2.0513,-1.54482c1.85374,-0.147 4.7348,-0.14585 6.60673,-0.00229c3.51317,0.26941 2.67178,0.85945 1.67917,1.49577m-125.72763,0.35419c-0.87973,-0.19078 -2.00112,-0.36186 -2.59382,-0.57604c-1.7706,-0.63983 0.21998,-1.04198 3.29549,-1.34201c3.27053,-0.31905 5.94166,-0.14934 7.68522,0.37689c1.7872,0.53942 1.61159,1.10277 -1.69877,1.437c-1.60008,0.16156 -3.94551,0.10563 -6.68812,0.10416m-316.02578,7.95175c1.22031,0.16587 2.4406,0.33173 3.15302,0.42857c1.47471,-0.11418 2.88455,-0.22334 4.29439,-0.3325c0.12777,0.26301 0.25554,0.52602 0.39663,0.81647c0.71022,0.01225 2.11481,0.03648 3.5194,0.06071c0.15399,0.08603 0.30799,0.17206 0.46199,0.25809c-1.69182,0.11538 -3.38365,0.23077 -4.54844,0.3102c0.16245,0.29675 0.31516,0.57569 0.46787,0.85463c-0.49798,0.01337 -0.99596,0.02675 -1.49395,0.04013c-0.92488,-0.20872 -1.84976,-0.41744 -2.08854,-0.47132c-1.81427,0.13175 -3.20652,0.23285 -4.59877,0.33395c0.09801,-0.28213 0.19602,-0.56425 0.30297,-0.87208c-1.07409,0.04382 -2.26249,0.0923 -3.42812,0.13986c-1.98107,-0.7827 1.9411,-0.58402 3.09384,-0.62764c0,-0.34659 0,-0.60031 0.46771,-0.93907m192.46296,1.85549c-0.76387,0.06233 -1.52773,0.12466 -2.2916,0.18699c-0.29557,-0.11304 -0.59112,-0.22609 -0.78075,-0.29862c-0.93494,0.12421 -1.85901,0.24698 -2.9511,0.39207c-0.84819,-0.66165 -3.1946,-1.26337 1.45443,-1.90432c0.4445,0.13124 0.98503,0.29083 1.42024,0.41932c0.73148,-0.13674 1.31998,-0.24675 2.77603,-0.51894l0.37276,1.7235z" fill="#000000"/>
  <path id="svg_2" d="m513,460.5459c-1.37051,0.95761 -2.79376,1.98178 -4.09994,1.84958c-2.28589,-0.23136 -5.17276,-0.53659 -6.55335,-1.99689c-1.36044,-1.43903 -2.09247,-4.71417 -1.38641,-6.50989c0.68359,-1.73862 3.40637,-3.13751 5.50097,-3.71435c1.70047,-0.4683 3.79724,0.50238 6.12845,0.83029c0.41028,3.02597 0.41028,6.05655 0.41028,9.54126z" fill="#2D4356"/>
  <path id="svg_3" d="m1,451.4541c1.76114,-0.78479 3.51213,-1.19079 5.28562,-1.42993c3.32095,-0.44785 6.38083,0.48941 7.01167,3.94965c0.3799,2.08383 -0.44019,4.90973 -1.73201,6.65298c-1.96176,2.64731 -5.00734,3.00732 -8.02213,1.16409c-0.56262,-0.34396 -1.19332,-0.57657 -2.16787,-0.82574c-0.37528,-2.99576 -0.37528,-6.02634 -0.37528,-9.51105z" fill="#2D4356"/>
  <path id="svg_4" d="m372.12445,293.97415c2.99692,0.03076 5.99384,0.06153 9.5669,0.39298c1.48669,-0.2002 2.39727,-0.70108 3.30786,-1.20197c6.74765,-2.23077 12.37191,-6.08951 17.15087,-12.08826c0.50452,-0.69744 0.67627,-0.94458 0.82484,-1.20782c0.80551,-1.82025 1.61105,-3.64047 2.98495,-5.716c3.0357,-0.94992 3.27286,-1.91324 0.92169,-3.18836c0.06143,-1.38275 0.12287,-2.76547 0.55771,-4.67618c3.84576,-3.41946 2.94052,-5.94537 -0.27396,-8.27838c-0.39468,-1.08444 -0.78933,-2.1689 -1.0495,-3.83075c0.05109,-1.44473 -0.03237,-2.31207 -0.12811,-3.52411c-0.23517,-2.16452 -0.40686,-4.05447 -3.04803,-2.55926c-2.34583,-2.66475 -4.69162,-5.32951 -7.53418,-8.5586c1.64251,-0.19638 2.7763,-0.33192 4.37521,-0.17355c1.37982,0.12982 2.2945,-0.03425 3.20917,-0.19833c10.73727,-2.58521 19.03155,-8.22208 23.93213,-19.06081c0.68628,-1.2765 0.85531,-2.23663 1.02435,-3.19676c0.03912,-0.73087 0.07828,-1.46173 0.3833,-2.64291c0.36731,-1.07279 0.46878,-1.69527 0.57025,-2.31774c-0.31561,-3.35289 -0.63119,-6.70579 -0.68417,-10.6217c1.93201,-4.79669 0.84076,-6.85376 -3.2742,-7.23003c-0.89801,-1.13954 -1.79602,-2.27907 -2.84821,-4.08648c-1.50433,-1.76806 -2.85452,-2.86825 -4.20471,-3.96844c-7.8024,-5.17613 -16.02362,-8.65676 -26.09976,-6.22141c7.09457,-7.5732 11.35028,-16.27974 11.03842,-26.27794c-0.31848,-10.21067 -4.68588,-19.19292 -13.15924,-25.17751c-11.66162,-8.2364 -24.87216,-10.70784 -40.8772,0.48193c-5.42605,-29.30385 -22.01861,-45.46282 -52.73498,-43.63494c-10.03369,0.59709 -19.4914,4.28125 -27.02579,11.35991c-7.56027,7.10297 -11.32129,16.0977 -12.19748,26.65248c-0.26193,-0.6351 -0.7269,-1.261 -0.75619,-1.90665c-0.75463,-16.63721 -10.5188,-26.46011 -25.17789,-31.66962c-13.67902,-4.86121 -27.607,-5.24751 -40.92658,1.89069c-7.44719,3.99106 -13.40037,9.6136 -18.29767,17.20999c-3.52395,1.0396 -4.20539,2.69729 -2.57551,5.30687c-1.12079,4.57571 -2.24156,9.1514 -3.49426,14.26564c-1.16632,-0.81586 -2.13198,-1.49134 -3.54587,-2.4715c-0.67969,-0.49926 -0.92749,-0.67012 -1.19164,-0.81723c-2.48982,-1.4673 -4.97964,-2.93459 -7.79859,-4.9521c-1.63089,-0.68766 -2.93267,-0.8251 -4.23443,-0.96254c-2.94908,-0.3652 -5.89814,-0.7304 -9.45889,-0.96046c-0.87428,0.31279 -1.11702,0.51439 -1.33986,0.73994c-0.17569,0.00338 -0.35136,0.00677 -0.97522,-0.32317c-3.90605,-2.16806 -6.96057,-2.82058 -8.05818,2.26292c-8.90201,3.52094 -14.47813,10.41634 -19.21232,18.95287c-0.48604,1.01903 -0.58725,1.64164 -0.68844,2.26424c-0.05081,0.43634 -0.10162,0.87267 -0.4609,1.75354c-0.38524,1.37888 -0.462,2.3132 -0.53876,3.24753c1.29098,6.3876 2.58196,12.77519 3.74702,19.79425c0.67182,1.79217 1.46955,2.95288 2.26729,4.11359c2.21345,2.13502 4.42689,4.27005 6.62546,6.89773c-0.25518,0.98723 -0.49548,1.48181 -0.73578,1.97641c-2.37661,-0.26547 -4.75323,-0.53094 -7.73122,-0.89471c-1.15621,0.23219 -1.71102,0.56267 -2.26584,0.89316c-1.73044,0.39259 -3.46089,0.78518 -5.84622,1.03726c-4.12477,-0.98977 -5.71924,0.69409 -6.16043,3.93563c-8.19722,6.32511 -13.23132,14.72509 -12.73927,24.99441c0.51727,10.79541 5.36305,19.89494 15.3098,25.47508c0.28693,0.16098 0.54929,0.36577 1.18254,1.04292c1.69374,0.82274 3.02805,1.15263 4.36237,1.48254c3.66561,0.4207 7.33121,0.84139 11.45047,1.54868c0.45364,0.28659 0.47498,0.76178 0.47498,0.76178c-5.9932,6.57513 -11.3559,13.4543 -11.42284,23.61003c-0.13717,1.80304 0.03926,3.03436 0.2157,4.26572c1.6953,4.39959 3.3906,8.79922 5.14775,13.93912c0.29025,5.22662 2.83058,7.11602 7.12837,7.03131c1.83033,0.81924 3.66064,1.63848 5.78732,3.03775c1.74753,3.24581 3.41572,4.94497 6.1503,1.89428c4.68332,-0.3063 9.36664,-0.61264 14.71986,-0.78698c1.52367,-0.58921 2.37743,-1.3104 3.23117,-2.03156c4.46312,-3.2648 8.92623,-6.52963 13.69943,-10.0213c1.17599,12.68332 7.05852,23.0979 16.96839,30.94284c5.5179,4.36813 11.42169,8.61679 17.8085,11.42557c7.87923,3.46512 13.32952,8.6568 16.83949,16.26108c0.41614,0.90158 0.89313,1.77508 1.1659,3.08206c-0.63236,0.73358 -1.08872,1.04669 -1.54508,1.3598c-16.21916,-4.29758 -31.39087,-10.75208 -43.69838,-22.50626c-4.61039,-4.4031 -8.59642,-9.48645 -12.63965,-14.44509c-1.83232,-2.24714 -3.20039,-3.23612 -6.54899,-2.49912c-6.24165,1.37375 -12.74153,1.57425 -19.71617,1.96213c-1.51189,-0.38764 -2.44153,-0.4744 -3.37116,-0.56116c-0.43953,-0.04269 -0.87906,-0.08536 -1.73312,-0.39786c-1.03732,-0.37106 -1.66007,-0.47232 -2.28284,-0.57354c-4.11554,-1.96262 -8.23107,-3.92524 -12.66011,-6.40006c-1.32287,-1.2092 -2.33223,-1.90619 -3.34161,-2.60321c-12.88729,-10.90405 -15.98364,-25.24155 -13.25094,-40.95354c0.91416,-5.2561 0.11594,-7.63933 -4.2775,-10.68196c-18.58512,-12.87086 -23.9407,-37.91524 -12.36359,-57.4192c4.06168,-6.8427 9.71385,-12.54935 17.75059,-15.95195c1.08763,-0.37522 1.61735,-0.80356 2.14708,-1.23191c-0.96171,-6.98812 -1.92342,-13.97627 -2.58354,-21.53784c0.3787,-1.50755 0.4558,-2.44166 0.5329,-3.37578c0.61943,-13.57106 8.10439,-23.06153 18.96716,-30.79494c1.77763,-0.92482 2.95461,-1.95609 4.13159,-2.98736c7.11665,-4.28683 14.9002,-6.04382 23.66486,-5.7533c1.59815,2.31388 2.77551,3.253 4.32483,0.75512c3.33926,0.38963 6.67854,0.77927 10.48251,1.22313c0.67481,-1.08192 1.59559,-2.55822 3.07082,-4.3405c1.82265,-2.57148 3.09085,-4.83697 4.35905,-7.10246c1.49025,-1.90115 2.98049,-3.80229 5.02335,-5.70788c1.34947,-1.14563 2.14633,-2.28682 2.94319,-3.42802c11.7684,-9.61824 25.34111,-14.14903 40.44124,-13.75893c15.53474,0.40135 29.57379,5.22192 41.59956,15.33016c0.49306,0.41442 1.05065,0.75204 1.55577,1.10961c31.38834,-29.93781 85.32633,-21.62869 101.17356,20.16792c8.66855,-2.06368 17.40857,-2.11986 26.11981,0.69346c22.10196,7.13786 36.25925,29.85713 31.14316,52.6777c-1.04572,4.66442 0.33807,6.58596 4.31039,8.13553c1.92694,0.75166 3.50366,2.40106 5.70896,3.96935c0.7008,0.52009 0.94769,0.69174 1.21069,0.84022c8.444,7.54703 14.75452,16.21503 14.54501,28.70284c-0.02447,1.1389 0.20862,1.74832 0.44174,2.35775c1.06281,11.50844 -2.27764,21.64847 -10.05294,30.80637c-1.01956,0.88875 -1.48996,1.55205 -1.96036,2.21535c-0.78867,0.6327 -1.57736,1.26541 -3.04169,1.98869c-1.42111,0.92687 -2.16659,1.76316 -2.91208,2.59943c-1.6932,1.87134 -3.38644,3.74266 -5.33154,6.08212c-2.30414,2.52188 -0.73544,2.93796 1.01596,3.27141c2.7832,9.30903 1.74091,18.36427 -2.22708,27.66338c-2.71307,0.89901 -4.07794,1.87561 -2.509,4.39221c-0.48258,0.88845 -0.96515,1.77691 -2.0701,2.84832c-2.95883,0.59488 -4.54257,1.44431 -2.92948,4.15198c-0.49505,0.57071 -0.99008,1.14142 -2.09185,1.8671c-2.13471,0.78522 -5.39588,0.01913 -3.33472,3.54101c-1.30615,0.82618 -2.61231,1.65232 -4.53534,2.43253c-1.39374,0.56146 -2.17062,1.16891 -2.94748,1.77637c-0.85321,0.43921 -1.70645,0.87841 -3.12122,1.18029c-2.06133,0.56919 -3.56121,1.27567 -5.06106,1.98215c-6.72937,0.06821 -13.45877,0.13638 -20.66052,-0.23117c-2.11511,-0.79227 -3.75785,-1.14883 -5.40058,-1.5054c-5.50085,-0.49954 -5.68527,4.91687 -8.90054,7.58102c-1.69241,0.80454 -2.8689,1.56287 -4.33246,2.39698c-0.38962,1.03765 -0.49215,1.99954 -0.59473,2.96145c-1.1358,1.23352 -2.2716,2.46707 -4.07025,3.87192c-2.71133,0.71051 -5.55722,0.59302 -3.94009,4.15094c-7.44766,4.29892 -14.89532,8.59784 -22.90283,12.80633c-1.13874,-0.10473 -1.71765,-0.11904 -2.29657,-0.13336c0.06216,0.44184 0.12433,0.88367 0.18649,1.3255c-4.24982,1.59415 -8.4996,3.18833 -13.9845,5.24576c1.24057,-2.63574 1.96195,-4.16839 3.17536,-6.01614c4.37256,-1.25965 4.71954,-1.91995 2.59811,-4.32309c0.48062,-0.89594 0.96127,-1.79187 2.0463,-2.92008c1.42618,-1.16989 2.24795,-2.10745 3.35394,-3.16674c0.76083,-0.97648 1.23752,-1.83124 1.7142,-2.68604c7.08994,-4.62588 14.17984,-9.25177 21.75074,-14.17792c0.74584,-0.47979 0.99087,-0.68329 1.21606,-0.9107c0,0 0.4584,-0.08399 1.05722,-0.13483c3.66263,-0.42709 5.57468,-1.56637 3.922,-5.0672c2.60898,-5.09357 5.21792,-10.1871 8.26141,-15.70935c0.53525,-1.383 0.63602,-2.33734 0.73679,-3.29169c0,0 0.09549,-0.44976 0.52282,-0.58471c2.17261,0.12146 3.91785,0.37793 5.66312,0.6344c0.289,0.10968 0.52481,0.28921 0.83145,1.10058c0.94769,2.90521 1.0589,6.32755 5.07721,3.83252c2.42114,0.71921 4.84232,1.43839 7.80814,2.36927c0.77359,0.4045 1.01837,0.57446 1.27911,0.72152z" fill="#2D4356"/>
  <path id="svg_5" d="m215.01477,449.9198c1.2249,-10.40134 2.46965,-20.80041 3.66779,-31.20483c0.80654,-7.00406 1.50282,-14.02091 2.32777,-21.02271c1.2265,-10.41009 2.58408,-20.80499 3.77091,-31.21945c0.96478,-8.46616 2.46008,-16.96408 2.30928,-25.42273c-0.06629,-3.71808 -3.50371,-7.453 -5.63895,-11.0445c-12.40582,-20.86657 -24.87271,-41.69683 -37.33362,-62.5306c-5.43669,-9.08976 -10.79928,-18.22651 -16.39789,-27.21589c-4.6056,-7.39494 -3.34652,-14.28547 3.85999,-19.49868c1.85347,-1.34081 3.58993,-2.84324 5.38139,-4.26985c5.40616,-4.30515 12.77457,-2.32506 16.86723,1.79536c13.37667,13.46745 26.83034,26.8584 40.88717,40.91138c0.80551,-8.21979 1.54345,-15.76279 2.28413,-23.3055c0.97681,-9.94762 1.40753,-19.99069 3.12088,-29.80988c1.20007,-6.87756 5.14156,-9.0749 12.06665,-9.08152c3.16595,-0.00302 6.39459,0.40139 9.48538,-0.08066c7.43125,-1.15901 12.71243,5.87382 13.32843,12.75526c1.31815,14.72537 2.70804,29.44457 3.94657,44.17656c0.27337,3.25196 0.04003,6.54654 0.04003,11.30945c5.92789,-6.987 11.01011,-12.80066 15.89548,-18.77528c8.08158,-9.88349 16.03412,-19.87242 24.04502,-29.81372c6.78237,-8.41677 13.59448,-16.8097 20.34823,-25.24933c5.29019,-6.61069 13.31488,-9.0437 21.04624,-2.63712c4.89218,4.05396 10.2929,7.63674 9.55831,14.92493c-0.29827,2.95961 -1.46023,6.05954 -3.00286,8.63159c-17.4235,29.051 -35.04148,57.98528 -52.51218,87.00813c-8.56656,14.23093 -16.69165,28.73358 -25.50711,42.80591c-3.74063,5.97128 -0.77011,11.6254 -0.48172,17.27084c0.52472,10.27207 2.33932,20.47864 3.62442,30.71146c1.28409,10.22446 2.6365,20.4408 3.85217,30.67337c1.12171,9.44156 2.10169,18.9 2.67554,28.80969c-4.48407,0.43906 -8.49957,0.41941 -12.68005,0.02771c-1.16578,-7.93127 -2.16654,-15.49057 -3.1865,-23.19458c-17.18942,0 -34.34895,0 -51.52336,0c-0.40904,4.59812 -0.65298,8.86402 -1.20633,13.08939c-0.4606,3.51718 -1.2845,6.98676 -2.40874,10.50571c-4.4774,0.00888 -8.49356,-0.01053 -12.5097,-0.02991m99.04834,-206.27386c-14.67682,18.10189 -29.35364,36.20379 -44.79153,55.24435c-2.64865,-30.57767 -5.15692,-59.53441 -7.67304,-88.58194c-3.17901,0 -6.23695,0 -9.20726,0c-2.2699,26.40745 -4.51286,52.50146 -6.86044,79.81253c-20.98038,-21.44162 -41.13069,-42.03494 -61.20627,-62.55188c-2.18414,1.76505 -3.69853,2.98885 -5.30991,4.29102c0.46138,0.99102 0.85315,2.06282 1.42557,3.0274c8.31319,14.00839 16.67012,27.99088 24.97739,42.00275c11.13153,18.77551 22.33838,37.50824 33.22073,56.4274c1.59128,2.76645 2.40627,6.53296 2.13753,9.7149c-0.90846,10.7569 -2.45601,21.46024 -3.77939,32.18155c-0.92227,7.47177 -1.96004,14.9303 -2.789,22.41217c-0.55229,4.98477 -0.8279,10.00024 -1.23018,15.03787c16.36716,0 32.10756,0 47.98149,0c0,-1.99521 0.18186,-3.67871 -0.03155,-5.31054c-0.91098,-6.96515 -2.0322,-13.90329 -2.9025,-20.87308c-1.39948,-11.20795 -3.03067,-22.4079 -3.7981,-33.66342c-0.30392,-4.45691 -2.18731,-9.09113 0.67817,-13.73337c8.38858,-13.59003 16.42791,-27.39539 24.63415,-41.09839c17.90576,-29.89951 35.85077,-59.7755 53.72836,-89.69182c3.33203,-5.57585 3.22113,-5.64212 -2.64782,-9.30035c-4.88977,6.08281 -9.74082,12.23028 -14.71411,18.27722c-7.098,8.63029 -14.28559,17.18687 -21.84229,26.37563z" fill="#0BCEB2"/>
  <path id="svg_6" d="m214.54628,449.9462c4.48463,-0.00702 8.50079,0.01239 13.44663,0.02957c19.96028,-0.01962 38.99088,-0.03708 58.02146,-0.05454c4.01551,0.01966 8.03101,0.03931 12.50858,0.02897c53.44089,-0.00342 106.41974,0.02301 159.39856,0.04992c7.11593,0.0036 10.0094,1.75064 9.98373,6.02435c-0.02603,4.33167 -3.86398,6.97046 -10.26169,6.97074c-133.78131,0.00586 -267.5626,-0.00006 -401.34389,0.02692c-3.8283,0.00076 -7.34621,-0.31876 -9.34488,-4.23539c-2.04564,-4.00875 0.22675,-8.33276 4.68901,-8.73285c1.65355,-0.14825 3.3298,-0.05233 4.99569,-0.05267c52.47944,-0.01071 104.95888,-0.01953 157.9068,-0.05502z" fill="#2D4356"/>
  <path id="svg_7" d="m271.38428,487.05994c-0.81973,1.48501 -1.17505,2.9263 -1.67215,4.94275c9.33954,0 17.97641,-0.28891 26.5693,0.19821c2.21537,0.12558 5.42636,2.28915 6.11869,4.24588c0.71252,2.0137 -0.7992,5.06589 -1.94944,7.35638c-0.42599,0.84824 -2.59027,1.14499 -3.96316,1.14853c-25.30606,0.06525 -50.61237,0.0289 -75.91854,0.06769c-3.93716,0.00604 -6.32009,-1.60394 -6.54986,-5.6716c-0.25658,-4.54218 2.07484,-7.21936 6.66336,-7.3053c7.6201,-0.14267 15.24481,-0.03885 23.06303,-0.03885c0,-1.82675 0,-3.21167 0,-5.00369c-15.85565,0 -31.47306,-0.07117 -47.08889,0.05429c-3.53089,0.02835 -6.10141,-1.45483 -6.46364,-4.62692c-0.26193,-2.2938 1.01075,-4.96122 2.20596,-7.12705c0.48978,-0.88748 2.57672,-1.24667 3.93803,-1.24878c40.45658,-0.06323 80.91327,-0.06067 121.36994,-0.03579c3.76092,0.00228 7.11291,3.30474 6.97995,6.65121c-0.13699,3.44901 -3.41834,6.31583 -7.38687,6.32343c-15.15036,0.02899 -30.30084,0.02044 -45.91571,0.06961z" fill="#0BCEB2"/>
  <path id="svg_8" d="m349.9906,487.00052c-4.80954,-0.00015 -9.12296,0.04034 -13.43527,-0.01154c-4.5994,-0.05536 -6.55789,-2.11111 -6.56522,-6.61767c-0.00693,-4.25592 2.00092,-6.39472 6.31137,-6.37949c8.12812,0.02869 16.25647,0.03015 24.38456,-0.00027c4.32434,-0.01618 6.31164,2.15182 6.3233,6.39465c0.0123,4.48434 -1.96012,6.53595 -6.56937,6.6041c-3.31692,0.04904 -6.63513,0.00997 -10.44937,0.01022z" fill="#0BCEB2"/>
  <path id="svg_9" d="m177.56274,473.99991c5.23929,0.82681 6.96808,2.9566 6.40877,7.68994c-0.47181,3.99261 -3.00555,5.40057 -6.86094,5.34439c-7.80132,-0.11368 -15.60563,-0.00162 -23.40833,-0.04669c-4.59853,-0.02658 -6.70341,-2.12747 -6.70213,-6.49997c0.00126,-4.34564 2.13011,-6.4548 6.70024,-6.47733c7.80278,-0.03845 15.60588,-0.01062 23.86239,-0.01034z" fill="#0BCEB2"/>
  <path id="svg_10" d="m161.91772,68.037c-8.93324,3.44458 -15.11759,-0.31517 -15.01058,-8.5906c0.06105,-4.72016 2.57223,-7.9119 6.72714,-8.54577c3.02916,-0.46213 7.08702,0.33957 9.42032,2.18152c2.92108,2.30595 4.19609,6.3679 2.1815,10.3456c-0.7997,1.57896 -1.96791,2.9713 -3.31838,4.60925z" fill="#263848"/>
  <path id="svg_11" d="m20.83186,451.71256c5.7817,-0.62989 11.29519,-1.35053 16.74278,-1.01172c1.24624,0.07748 3.19041,3.83892 3.12098,5.84634c-0.06549,1.8934 -2.08137,4.9469 -3.72917,5.3187c-4.26397,0.96197 -8.86901,1.32177 -13.20487,0.80535c-4.53349,-0.54 -5.86709,-5.8482 -2.92972,-10.95867z" fill="#2D4356"/>
  <path id="svg_12" d="m477.70871,450.09888c4.09894,-0.05692 7.90665,-0.67237 11.37875,0.14236c2.20957,0.51846 4.87061,2.82056 5.62329,4.93122c1.01294,2.84048 -0.09738,6.22231 -3.85421,6.87921c-3.55664,0.62188 -7.22998,0.91012 -10.83716,0.81002c-3.27438,-0.09091 -6.21448,-1.3319 -6.88864,-5.18652c-0.63019,-3.60324 0.69748,-6.15659 4.57797,-7.57629z" fill="#2D4356"/>
  <path id="svg_13" d="m38.3313,167.52846c-1.10054,-4.31229 1.80863,-3.52666 4.5732,-3.50417c-0.98071,-1.83072 -1.76449,-3.29384 -2.63029,-4.91006c1.10192,-0.6346 2.20548,-1.27014 3.53475,-2.03566c0.91246,1.57693 1.80017,3.11105 2.83583,4.90088c1.05538,-1.70322 2.04506,-3.3004 3.06619,-4.94835c4.83284,1.67999 1.98143,4.2836 0.72674,6.53418c1.87783,1.37291 6.66757,-1.58504 5.22553,4.27676c-1.61297,0.09339 -3.32327,0.19238 -5.39495,0.31232c1.44811,2.50242 4.11296,4.87121 -0.43945,7.01884c-1.04511,-1.80592 -2.14156,-3.70056 -3.24989,-5.61573c-0.84758,1.75497 -1.66547,3.44847 -2.58637,5.35525c-1.36554,-0.69841 -2.4594,-1.25789 -3.74373,-1.91478c0.85069,-1.61476 1.6319,-3.09764 2.53622,-4.81422c-1.64127,-0.12694 -2.92841,-0.22649 -4.45378,-0.65526z" fill="#0BCEB2"/>
  <path id="svg_14" d="m400.06964,17.89829c0.03256,-6.18231 3.78915,-0.40358 5.46704,-2.60747c-0.7037,-1.27287 -1.5729,-2.84511 -2.44049,-4.41436c2.86862,-2.43041 2.86862,-2.43041 5.44806,1.47672c1.85132,-0.97051 3.64212,-1.90928 5.43289,-2.84805c-0.29675,2.1106 -0.59347,4.2212 -0.90283,6.4213c1.10016,-0.25604 2.63327,-0.61284 4.1742,-0.97145c0.77731,3.90542 0.77731,3.90542 -4.90525,4.23507c1.01184,2.31534 5.63291,5.03207 -0.76443,6.80503c-0.68546,-1.49256 -1.39984,-3.04818 -2.26184,-4.92523c-0.96137,1.56009 -1.87998,3.05082 -3.00095,4.86999c-0.99115,-0.41902 -2.11215,-0.89293 -3.49762,-1.47864c0.90271,-1.72807 1.71445,-3.28209 2.62213,-5.01971c-1.76529,-0.37642 -3.54336,-0.75558 -5.37091,-1.5432z" fill="#0BCEB2"/>
  <path id="svg_15" d="m466.67877,142.53717c-2.66485,1.20076 -5.1582,2.76469 -7.59598,2.68237c-1.38955,-0.04692 -3.70782,-2.73039 -3.78573,-4.31616c-0.11298,-2.29921 0.78116,-5.79333 2.42062,-6.73739c1.95978,-1.12851 5.63019,-0.95594 7.7042,0.19486c2.76196,1.53257 3.34063,4.77669 1.25689,8.17632z" fill="#2D4356"/>
  <path id="svg_16" d="m7.01885,90.09946c0.48031,-4.73467 3.10008,-6.48665 7.19006,-5.994c3.61461,0.43539 5.97209,2.73541 5.55329,6.35571c-0.38431,3.32212 -1.93433,6.65646 -6.18841,6.42608c-3.81431,-0.20658 -6.73711,-1.83171 -6.55494,-6.78779z" fill="#2D4356"/>
  <path id="svg_17" d="m506.34906,74.91107c0.80701,3.48409 1.67554,7.03272 -1.95096,8.65299c-1.93231,0.86335 -4.90631,0.87031 -6.81985,-0.0138c-3.70618,-1.71234 -4.39987,-6.08771 -2.11747,-9.29084c2.3743,-3.33212 6.71949,-3.2064 10.88828,0.65165z" fill="#2D4356"/>
  <path id="svg_18" d="m376.72723,72.30567c2.45194,0.12351 4.87302,-0.21282 6.52472,0.75881c3.41715,2.01015 3.59842,5.39825 1.75357,8.64241c-1.7998,3.1649 -4.5571,4.18556 -7.93313,2.26671c-3.17472,-1.80444 -5.22952,-4.22308 -3.4018,-8.07112c0.61182,-1.28812 1.76938,-2.31705 3.05664,-3.59681z" fill="#2D4356"/>
  <path id="svg_19" d="m49.88652,24.35882c-0.2414,-1.78163 -0.2414,-3.30752 -0.2414,-5.392c-1.18992,-0.26234 -5.23862,0.93254 -3.19364,-3.77478c1.20323,0.28599 2.42996,0.57758 3.5387,0.84112c-0.1104,-1.85134 -0.21157,-3.54811 -0.31274,-5.24487c1.43716,0.60805 2.87433,1.2161 4.74712,2.00846c0.24648,-0.32407 1.20119,-1.57935 2.15591,-2.83462c0.51405,0.08045 1.0281,0.1609 1.54214,0.24134c-0.15763,1.67763 -0.31527,3.35526 -0.48296,5.13995c1.20236,0.47776 2.94876,1.1717 4.69516,1.86563c-0.15896,0.5174 -0.31793,1.0348 -0.47689,1.55219c-1.4499,0.14572 -2.8998,0.29144 -3.63293,0.36513c-0.14564,1.74684 -0.27753,3.32863 -0.40942,4.91042c-1.45532,-0.65651 -2.91064,-1.31302 -4.43292,-1.99973c-0.7354,0.58238 -1.99506,1.57994 -3.49613,2.32176z" fill="#0BCEB2"/>
  <path id="svg_20" d="m248.75417,19.14862c-0.33959,1.24122 -0.33959,2.36869 -0.33959,4.67208c-1.50302,-1.63699 -2.1105,-2.29861 -2.86558,-3.121c-0.44924,0.77276 -1.00721,1.73255 -1.46605,2.52185c-4.799,-3.85479 -2.3769,-7.47368 -1.50135,-11.45296c1.12732,0.8726 2.0812,1.61096 3.0463,2.358c0.19575,-0.43622 0.50084,-1.11608 0.80594,-1.79595c0.78851,0.37486 1.57701,0.74973 2.36552,1.12459c-2.53689,1.99891 5.97392,3.41493 -0.04519,5.69339z" fill="#0BCEB2"/>
  <path id="svg_21" d="m424.99945,194.44251c4.05704,0.02937 5.14829,2.08644 3.18033,6.45684c-1.23984,-1.94551 -2.18112,-4.02774 -3.18033,-6.45684z" fill="#2D4356"/>
  <path id="svg_22" d="m118.94049,288.67246c-4.12675,0.37133 -6.66708,-1.51807 -6.89758,-6.39414c2.24077,1.77603 4.48366,3.94177 6.89758,6.39414z" fill="#2D4356"/>
  <path id="svg_23" d="m407.11475,258.45105c3.26504,1.89212 4.17028,4.41803 0.37439,7.42514c-0.35734,-2.25101 -0.39118,-4.61764 -0.37439,-7.42514z" fill="#2D4356"/>
  <path id="svg_24" d="m129.35507,120.73953c0.74434,-4.98704 3.79886,-4.33452 7.44376,-2.20202c-2.2388,0.90036 -4.66464,1.50296 -7.44376,2.20202z" fill="#2D4356"/>
  <path id="svg_25" d="m356.96588,285.66809c-1.58261,0.0257 -3.32785,-0.23077 -5.43683,-0.57318c-0.39605,-1.15653 -0.42846,-2.22711 -0.17621,-3.70663c0.28467,-0.40897 0.75766,-0.42978 0.75766,-0.42978c1.56424,1.4758 3.12845,2.9516 4.85538,4.70959z" fill="#2D4356"/>
  <path id="svg_26" d="m164.61328,96.12529c-0.98088,2.08616 -2.24908,4.35165 -3.89985,6.65264c0.94911,-2.1341 2.28082,-4.30371 3.89985,-6.65264z" fill="#2D4356"/>
  <path id="svg_27" d="m341.65778,305.07202c1.9393,3.33042 0.02725,4.4697 -3.40433,4.86676c0.7941,-1.55154 1.9559,-3.12393 3.40433,-4.86676z" fill="#2D4356"/>
  <path id="svg_28" d="m362.86993,290.60825c-3.85104,2.77014 -3.96225,-0.6522 -4.80792,-3.35715c1.53226,0.78616 3.08646,1.93411 4.80792,3.35715z" fill="#2D4356"/>
  <path id="svg_29" d="m98.3106,184.70998c0.13225,-3.14403 1.72672,-4.82789 5.47129,-3.7956c-1.53766,1.35472 -3.35001,2.5264 -5.47129,3.7956z" fill="#2D4356"/>
  <path id="svg_30" d="m130.79895,293.63861c-2.48438,3.30319 -4.15257,1.60403 -5.683,-1.38861c1.7581,0.16083 3.59546,0.64847 5.683,1.38861z" fill="#2D4356"/>
  <path id="svg_31" d="m306.63922,334.1601c2.36615,2.20816 2.01917,2.86846 -2.21326,3.82702c0.42157,-1.20135 1.19507,-2.41672 2.21326,-3.82702z" fill="#2D4356"/>
  <path id="svg_32" d="m169.34869,113.84973c-1.87983,-2.40482 -1.19839,-4.06251 2.14243,-4.80746c-0.40091,1.50726 -1.14668,3.05498 -2.14243,4.80746z" fill="#2D4356"/>
  <path id="svg_33" d="m340.3801,324.89935c-1.88935,-3.39715 0.95654,-3.27966 3.36853,-3.83886c-0.7898,1.2127 -1.94306,2.4454 -3.36853,3.83886z" fill="#2D4356"/>
  <path id="svg_34" d="m349,314c1.17651,-0.7583 2.353,-1.51663 3.78625,-2.10107c-0.54901,1.06961 -1.35479,1.96533 -2.62158,2.84783c-0.69555,-0.25775 -0.93011,-0.50225 -1.16467,-0.74676z" fill="#2D4356"/>
  <path id="svg_35" d="m362.17895,304.34808c1.40973,0.1063 3.05247,0.46286 4.75739,1.15317c-1.46667,-0.07846 -2.99551,-0.49066 -4.75739,-1.15317z" fill="#2D4356"/>
  <path id="svg_36" d="m402.99258,248.42029c2.58826,-1.81946 2.75995,0.07049 2.80484,2.40478c-0.40326,0.76889 -0.62857,1.02329 -0.85385,1.2777c-0.63269,-1.11942 -1.26538,-2.23883 -1.95099,-3.68248z" fill="#2D4356"/>
  <path id="svg_37" d="m409.37869,292.89069c-1.89306,-2.54343 -0.30932,-3.39286 2.38077,-3.8277c-0.46448,1.20587 -1.28262,2.43466 -2.38077,3.8277z" fill="#2D4356"/>
  <path id="svg_38" d="m118.69226,111.23644c-0.87071,0.9588 -2.04769,1.99007 -3.48712,2.8441c0.88531,-1.04203 2.03307,-1.90683 3.48712,-2.8441z" fill="#2D4356"/>
  <path id="svg_39" d="m388.35199,305.84949c1.15491,-0.72159 2.65479,-1.42807 4.42944,-1.94397c-1.17831,0.78012 -2.63144,1.3696 -4.42944,1.94397z" fill="#2D4356"/>
  <path id="svg_40" d="m414.37018,285.89334c-1.84082,-2.35531 -0.47595,-3.33191 2.15289,-3.85617c-0.40396,1.20795 -1.14249,2.45142 -2.15289,3.85617z" fill="#2D4356"/>
  <path id="svg_41" d="m403.91711,298.29254c-2.30612,-3.35138 0.95505,-2.58529 2.83893,-3.23382c-0.62738,1.00891 -1.61069,2.0361 -2.83893,3.23382z" fill="#2D4356"/>
  <path id="svg_42" d="m146.67775,105.9956c-1.23885,2.66807 -2.41621,1.72895 -3.57605,-0.53539c1.02591,-0.07504 2.14574,0.14509 3.57605,0.53539z" fill="#2D4356"/>
  <path id="svg_43" d="m418.05185,186.31863c1.18695,0.82225 2.53714,1.92244 3.89731,3.40795c-1.23804,-0.78647 -2.48606,-1.95824 -3.89731,-3.40795z" fill="#2D4356"/>
  <path id="svg_44" d="m108.09306,296.36218c0.8611,0.43329 1.87046,1.13028 2.89318,2.16144c-0.90607,-0.40982 -1.82547,-1.15375 -2.89318,-2.16144z" fill="#2D4356"/>
  <path id="svg_45" d="m348.71295,314.07578c0.52161,0.16873 0.75617,0.41323 1.18701,0.81964c-0.29693,0.73062 -0.79019,1.29931 -1.53259,2.00494c-0.14657,-0.82501 -0.04404,-1.7869 0.34558,-2.82458z" fill="#2D4356"/>
  <path id="svg_46" d="m172.62051,86.99013c-0.55023,0.96113 -1.34709,2.10232 -2.41098,3.07873c0.54344,-1.07608 1.35389,-1.98737 2.41098,-3.07873z" fill="#2D4356"/>
  <path id="svg_47" d="m406.64191,271.18658c2.59082,1.05326 2.35366,2.01658 -0.43592,2.74048c-0.14941,-0.82 0.02341,-1.66928 0.43592,-2.74048z" fill="#2D4356"/>
  <path id="svg_48" d="m418.87598,253.67151c-1.793,-0.00592 -3.3617,-0.422 -1.03366,-2.59155c0.54226,0.67744 0.80877,1.47074 1.03366,2.59155z" fill="#2D4356"/>
  <path id="svg_49" d="m105.91243,237.54909c-1.12965,-0.07656 -2.46396,-0.40645 -3.85395,-1.06072c1.17931,0.05289 2.41429,0.43013 3.85395,1.06072z" fill="#2D4356"/>
  <path id="svg_50" d="m114.04778,170.63982c-0.72983,-0.83852 -1.52756,-1.99923 -2.1511,-3.41951c0.81052,0.85939 1.44685,1.97836 2.1511,3.41951z" fill="#2D4356"/>
  <path id="svg_51" d="m313.69275,325.26901c-0.17105,0.77805 -0.64774,1.63281 -1.72443,2.60935c-1.02115,0.12176 -1.44229,0.12182 -1.8634,0.12188c1.09408,-0.88482 2.18814,-1.76965 3.58783,-2.73123z" fill="#2D4356"/>
  <path id="svg_52" d="m106.88478,267.59274c-0.22581,-0.83545 -0.40224,-2.06677 -0.31432,-3.43899c0.29748,0.92044 0.33058,1.98178 0.31432,3.43899z" fill="#2D4356"/>
  <path id="svg_53" d="m384.67523,293.14642c-0.58661,0.51963 -1.49719,1.02051 -2.53497,1.27045c0.65216,-0.59701 1.43158,-0.94312 2.53497,-1.27045z" fill="#2D4356"/>
  <path id="svg_54" d="m309.96478,328.29236c0.56125,-0.29218 0.98239,-0.29224 1.71936,-0.29233c-0.50595,0.93756 -1.32772,1.87512 -2.47448,2.88754c-0.01163,-0.7178 0.30166,-1.51043 0.75512,-2.59521z" fill="#2D4356"/>
  <path id="svg_55" d="m148.69714,291.11227c-0.5507,0.68146 -1.40446,1.40265 -2.50604,1.95713c0.56912,-0.75028 1.38606,-1.33383 2.50604,-1.95713z" fill="#2D4356"/>
  <path id="svg_56" d="m149.07486,119.39574c1.06085,-0.14154 2.36263,-0.0041 3.77683,0.42756c-1.10369,0.14662 -2.31981,-0.00099 -3.77683,-0.42756z" fill="#2D4356"/>
  <path id="svg_57" d="m120.3198,179.88324c-0.07413,-0.54169 0.16617,-1.03627 0.59177,-1.73721c0.8723,0.07548 1.55929,0.35731 3.66264,1.22023c-2.28295,0.32684 -3.11146,0.44546 -4.25441,0.51698z" fill="#2D4356"/>
  <path id="svg_58" d="m402.61896,239.11859c-0.54376,0.21105 -1.45844,0.37512 -2.4903,0.29295c0.62836,-0.27748 1.37384,-0.3087 2.4903,-0.29295z" fill="#2D4356"/>
  <path id="svg_59" d="m315.3757,339.00989c-0.34289,-0.39313 -0.40506,-0.83496 -0.46722,-1.2768c0.57892,0.01432 1.15783,0.02863 1.94192,0.2031c-0.26117,0.44839 -0.72757,0.73666 -1.4747,1.0737z" fill="#2D4356"/>
  <path id="svg_60" d="m128.19011,306.31088c0.70198,-0.151 1.63162,-0.06424 2.67998,0.27365c-0.7383,0.15546 -1.59531,0.05979 -2.67998,-0.27365z" fill="#2D4356"/>
  <path id="svg_61" d="m404.99145,252.38261c0.1774,-0.53425 0.40271,-0.78865 0.81827,-1.21284c0.27372,0.69757 0.35718,1.56491 0.26633,2.65924c-0.46173,-0.23753 -0.74924,-0.70204 -1.0846,-1.4464z" fill="#2D4356"/>
  <path id="svg_62" d="m108.34296,146.82808c-0.16482,-0.70824 -0.08806,-1.64256 0.24052,-2.69687c0.16823,0.74361 0.08464,1.60719 -0.24052,2.69687z" fill="#2D4356"/>
  <path id="svg_63" d="m95.65813,145.17221c0.16455,0.70818 0.08745,1.64229 -0.24146,2.69629c-0.16792,-0.74353 -0.08405,-1.60693 0.24146,-2.69629z" fill="#2D4356"/>
  <path id="svg_64" d="m396.50977,302.55945c0.45642,-0.49497 1.2333,-1.10242 2.29803,-1.60651c-0.46731,0.5669 -1.22244,1.03046 -2.29803,1.60651z" fill="#2D4356"/>
  <path id="svg_65" d="m429.35416,239.91602c0.21997,-0.52193 0.69037,-1.18523 1.44711,-1.86565c-0.20804,0.56334 -0.70236,1.14381 -1.44711,1.86565z" fill="#2D4356"/>
  <path id="svg_66" d="m423.46521,244.52165c0.43024,-0.71241 1.17572,-1.5487 2.28433,-2.43324c-0.41427,0.73761 -1.19168,1.5235 -2.28433,2.43324z" fill="#2D4356"/>
  <path id="svg_67" d="m427.69885,217.13506c0.07846,0.73306 -0.09057,1.69319 -0.52002,2.74659c-0.08273,-0.77766 0.09491,-1.64859 0.52002,-2.74659z" fill="#2D4356"/>
  <path id="svg_68" d="m350.69452,286.12885c0.14731,0.72607 0.04654,1.68041 -0.29144,2.74789c-0.14374,-0.76447 -0.05017,-1.64203 0.29144,-2.74789z" fill="#2D4356"/>
  <path id="svg_69" d="m441.27319,206.86806c-0.38928,-0.44182 -0.62237,-1.05124 -0.64758,-1.7585c0.40656,0.46507 0.60516,1.02797 0.64758,1.7585z" fill="#2D4356"/>
  <path id="svg_70" d="m124.13126,305.3252c0.43801,-0.12226 1.06076,-0.021 1.77143,0.29537c-0.47029,0.11945 -1.02849,0.02378 -1.77143,-0.29537z" fill="#2D4356"/>
  <path id="svg_71" d="m109.32434,141.8683c-0.12211,-0.4378 -0.0209,-1.06041 0.29533,-1.77095c0.11934,0.47011 0.02366,1.02812 -0.29533,1.77095z" fill="#2D4356"/>
  <path id="svg_72" d="m214.12625,344.33374c0.26692,-0.52423 0.72328,-0.83734 1.44382,-1.23889c-0.24201,0.42441 -0.74819,0.93719 -1.44382,1.23889z" fill="#2D4356"/>
  <path id="svg_73" d="m428.67651,212.13205c0.12192,0.43776 0.02045,1.06024 -0.29596,1.7706c-0.11911,-0.47002 -0.02325,-1.02795 0.29596,-1.7706z" fill="#2D4356"/>
  <path id="svg_74" d="m110.2979,179.85539c0.26523,-0.35128 0.82004,-0.68176 1.56587,-0.88487c-0.2981,0.38679 -0.78719,0.64624 -1.56587,0.88487z" fill="#2D4356"/>
  <path id="svg_75" d="m97.66709,169.93311c-0.2464,0.35513 -0.77612,0.78347 -1.51389,1.09107c0.27148,-0.41978 0.75102,-0.71882 1.51389,-1.09107z" fill="#2D4356"/>
  <path id="svg_76" d="m336.71466,310.14801c0.02533,0.18304 -0.2197,0.38654 -0.68976,0.69025c0.00959,-0.13254 0.2244,-0.38922 0.68976,-0.69025z" fill="#2D4356"/>
  <path id="svg_77" d="m426.00427,175.77388c-0.13699,0.05272 -0.38388,-0.11893 -0.77991,-0.46658c0.1774,-0.14977 0.45044,-0.01035 0.77991,0.46658z" fill="#2D4356"/>
  <path id="svg_78" d="m138.28394,118.85339c-0.0259,-0.1827 0.21684,-0.3843 0.68292,-0.68409c-0.0091,0.13231 -0.22165,0.38678 -0.68292,0.68409z" fill="#2D4356"/>
  <path id="svg_79" d="m160.9926,125.23355c0.13852,-0.05504 0.38632,0.11582 0.7834,0.46321c-0.17857,0.15366 -0.45305,0.0157 -0.7834,-0.46321z" fill="#2D4356"/>
  <path id="svg_80" d="m402.7735,279.99518c0.05285,0.13714 -0.1189,0.38428 -0.4668,0.7807c-0.15008,-0.17761 -0.01062,-0.45096 0.4668,-0.7807z" fill="#2D4356"/>
  <path id="svg_81" d="m118.19066,240.00719c-0.14811,0.10571 -0.16945,-0.36948 -0.1792,-0.60698c0.16408,-0.095 0.34937,0.03702 0.49985,0.20097c0.02356,0.0257 -0.11106,0.19656 -0.32065,0.40601z" fill="#2D4356"/>
  <path id="svg_82" d="m371.9989,293.77539c-0.13519,0.0517 -0.37997,-0.11826 -0.7727,-0.46249c0.1752,-0.14716 0.44552,-0.00879 0.7727,0.46249z" fill="#2D4356"/>
  <path id="svg_83" d="m352.00543,280.81073c0.10507,0.14777 -0.36792,0.16858 -0.60431,0.1781c0.00882,-0.10223 0.25406,-0.21405 0.60431,-0.1781z" fill="#2D4356"/>
  <path id="svg_84" d="m314.26679,243.34558c7.35302,-8.8884 14.54061,-17.44498 21.63861,-26.07527c4.97329,-6.04694 9.82434,-12.19441 14.71411,-18.27722c5.86895,3.65823 5.97985,3.7245 2.64782,9.30035c-17.87759,29.91632 -35.8226,59.79231 -53.72836,89.69182c-8.20624,13.703 -16.24557,27.50836 -24.63415,41.09839c-2.86548,4.64224 -0.98209,9.27646 -0.67817,13.73337c0.76743,11.25552 2.39862,22.45547 3.7981,33.66342c0.8703,6.96979 1.99152,13.90793 2.9025,20.87308c0.21341,1.63183 0.03155,3.31533 0.03155,5.31054c-15.87393,0 -31.61433,0 -47.98149,0c0.40228,-5.03763 0.67789,-10.0531 1.23018,-15.03787c0.82896,-7.48187 1.86673,-14.9404 2.789,-22.41217c1.32338,-10.72131 2.87093,-21.42465 3.77939,-32.18155c0.26874,-3.18194 -0.54625,-6.94845 -2.13753,-9.7149c-10.88235,-18.91916 -22.0892,-37.65189 -33.22073,-56.4274c-8.30727,-14.01187 -16.6642,-27.99436 -24.97739,-42.00275c-0.57242,-0.96458 -0.96419,-2.03638 -1.42557,-3.0274c1.61138,-1.30217 3.12577,-2.52597 5.30991,-4.29102c20.07558,20.51694 40.22589,41.11026 61.20627,62.55188c2.34758,-27.31107 4.59054,-53.40508 6.86044,-79.81253c2.97031,0 6.02825,0 9.20726,0c2.51612,29.04753 5.02439,58.00427 7.67304,88.58194c15.43789,-19.04056 30.11471,-37.14246 44.99521,-55.54471z" fill="#000000"/>
  <path id="svg_85" d="m285.8494,449.54919c-18.86561,0.3895 -37.89621,0.40696 -57.39524,0.39832c0.19455,-3.51675 1.01845,-6.98633 1.47905,-10.50351c0.55335,-4.22537 0.79729,-8.49127 1.20633,-13.08939c17.17441,0 34.33394,0 51.52336,0c1.01996,7.70401 2.02072,15.26331 3.1865,23.19458z" fill="#000000"/>
 </g>
</svg>