<svg version="1.1" id="Layer_1" xmlns="http://www.w3.org/2000/svg" xmlns:xlink="http://www.w3.org/1999/xlink" x="0px" y="0px"
	 width="100%" viewBox="0 0 512 512" enable-background="new 0 0 512 512" xml:space="preserve">
<path fill="#000000" opacity="1.000000" stroke="none" 
	d="
M1.000000,451.000000 
	C1.000000,301.046112 1.000000,151.092209 1.000000,1.069161 
	C171.568069,1.069161 342.136169,1.069161 513.000000,1.069161 
	C513.000000,150.688553 513.000000,300.377289 512.589722,450.537659 
	C510.258514,450.676727 508.161743,449.706055 506.461273,450.174347 
	C504.366669,450.751190 501.643890,452.150085 500.960297,453.888702 
	C500.254242,455.684418 500.986267,458.959564 502.346710,460.398590 
	C503.727295,461.858887 506.614166,462.164124 508.900055,462.395477 
	C510.206238,462.527679 511.629486,461.503510 513.000000,461.000000 
	C513.000000,478.321106 513.000000,495.642212 513.000000,512.956177 
	C342.333313,512.948975 171.666656,512.948975 1.000000,512.948975 
	C1.000000,495.910004 1.000000,478.921967 1.375276,461.432129 
	C2.349826,461.214325 2.980525,461.446930 3.543154,461.790894 
	C6.557936,463.634125 9.603520,463.274109 11.565282,460.626801 
	C12.857098,458.883545 13.677192,456.057648 13.297292,453.973816 
	C12.666446,450.513580 9.606571,449.576324 6.285623,450.024170 
	C4.512134,450.263306 2.761142,450.669312 1.000000,451.000000 
M309.824615,328.584503 
	C309.511322,329.377136 309.198029,330.169769 308.325836,331.277313 
	C307.845215,332.173248 307.364563,333.069183 306.394501,334.355072 
	C305.621033,335.570404 304.847534,336.785767 303.793793,338.603302 
	C303.072418,340.135956 302.351044,341.668610 301.110474,344.304352 
	C306.595367,342.246918 310.845154,340.652740 315.656433,338.961151 
	C316.122833,338.672852 316.589233,338.384583 317.764862,337.956879 
	C325.212555,333.657959 332.660217,329.359039 340.652313,324.738617 
	C341.805573,323.505890 342.958832,322.273193 344.710815,320.737885 
	C345.846619,319.504333 346.982422,318.270782 348.616516,316.763458 
	C349.109772,316.194733 349.603027,315.626038 350.625671,314.760010 
	C351.431458,313.864258 352.237244,312.968536 353.561371,311.632629 
	C356.260681,309.014679 356.445099,303.598267 362.411957,304.598389 
	C363.940826,305.010590 365.469666,305.422791 367.818909,306.038940 
	C374.548279,305.970764 381.277679,305.902588 388.696899,305.864594 
	C390.149994,305.275116 391.603119,304.685638 393.629639,303.989532 
	C394.482880,303.550354 395.336121,303.111145 396.830200,302.446960 
	C397.585358,301.983398 398.340485,301.519836 399.753693,300.941498 
	C401.059845,300.115356 402.365997,299.289215 404.162079,298.122009 
	C405.145355,297.094818 406.128662,296.067627 407.613586,294.767059 
	C408.108643,294.196350 408.603668,293.625641 409.658661,292.726440 
	C410.476837,291.497650 411.294983,290.268860 412.650604,288.720001 
	C413.133148,287.831543 413.615723,286.943085 414.642059,285.732056 
	C415.380585,284.488586 416.119110,283.245117 417.026123,281.252197 
	C420.575287,272.363312 421.617584,263.308075 418.917603,253.343994 
	C418.651093,252.550705 418.384583,251.757401 418.070282,250.259491 
	C419.763519,248.388168 421.456757,246.516846 423.780457,244.397797 
	C424.557861,243.611908 425.335266,242.826019 426.737671,241.955490 
	C427.526367,241.322800 428.315063,240.690094 429.604584,239.774658 
	C430.098907,239.194183 430.593231,238.613708 431.613251,237.616592 
	C438.839386,228.684143 442.179840,218.544113 441.429382,206.700439 
	C441.230774,206.137527 441.032166,205.574631 440.932861,204.148453 
	C440.884796,192.190109 434.574280,183.522110 425.878235,175.572678 
	C425.674805,175.296951 425.401764,175.157532 424.449585,174.809555 
	C422.714294,173.566574 421.137573,171.917175 419.210632,171.165512 
	C415.238312,169.615936 413.854523,167.694397 414.900238,163.029984 
	C420.016327,140.209412 405.859039,117.490143 383.757080,110.352280 
	C375.045837,107.538963 366.305817,107.595139 357.637268,109.658821 
	C341.790039,67.862213 287.852051,59.553085 256.463715,89.490898 
	C255.958588,89.133331 255.401001,88.795708 254.907944,88.381287 
	C242.882172,78.273048 228.843124,73.452477 213.308380,73.051132 
	C198.208252,72.661026 184.635544,77.191818 172.373871,87.170197 
	C171.563416,88.081490 170.752975,88.992783 169.371338,90.242523 
	C167.881088,92.143669 166.390854,94.044815 164.325943,96.304619 
	C162.994247,98.474220 161.662537,100.643829 159.987091,103.354416 
	C159.066315,104.830704 158.145538,106.306999 157.470734,107.388916 
	C153.666763,106.945061 150.327484,106.555420 146.367279,105.825432 
	C145.247437,105.605301 144.127609,105.385170 142.131149,105.065964 
	C133.898727,105.120148 126.115181,106.877136 118.385986,111.308914 
	C117.238213,112.173714 116.090446,113.038506 114.266273,114.044876 
	C104.004173,121.884735 96.519211,131.375214 95.416489,145.398163 
	C95.332619,146.261566 95.248749,147.124969 95.065292,148.895493 
	C96.027000,155.883621 96.988708,162.871765 97.383766,170.006317 
	C96.904221,170.305359 96.424683,170.604401 95.245445,171.038666 
	C87.766602,174.494400 82.114426,180.201050 78.052750,187.043747 
	C66.475639,206.547714 71.831215,231.592087 90.416336,244.462952 
	C94.809784,247.505585 95.608002,249.888809 94.693840,255.144913 
	C91.961136,270.856903 95.057487,285.194397 108.241356,296.625946 
	C109.160767,297.369873 110.080170,298.113800 111.599892,299.213867 
	C115.715431,301.176483 119.830963,303.139099 124.316010,305.548645 
	C124.874199,305.644348 125.432396,305.740021 126.643883,305.945099 
	C127.083405,305.987762 127.522926,306.030426 128.417755,306.548645 
	C129.274780,306.644318 130.131790,306.739990 131.915848,306.935181 
	C138.308258,306.246399 144.808136,306.045898 151.049789,304.672150 
	C154.398392,303.935150 155.766464,304.924133 157.598785,307.171265 
	C161.642014,312.129913 165.628036,317.213257 170.238434,321.616364 
	C182.545944,333.370544 197.717651,339.825043 214.315689,344.544830 
	C214.821884,344.032043 215.328064,343.519257 215.657898,342.342346 
	C215.209122,341.455841 214.732132,340.582336 214.315994,339.680756 
	C210.806015,332.076477 205.355728,326.884796 197.476501,323.419678 
	C191.089691,320.610901 185.185898,316.362244 179.667999,311.994110 
	C169.758133,304.149170 163.875595,293.734589 162.699615,281.051270 
	C157.926407,284.542938 153.463303,287.807770 148.394104,291.151978 
	C147.577164,291.735565 146.760223,292.319122 145.099106,292.972168 
	C140.415787,293.278473 135.732468,293.584808 130.548767,293.386108 
	C128.711411,292.898468 126.874054,292.410828 124.602493,291.416840 
	C122.772171,290.597565 120.941856,289.778320 118.769447,288.385834 
	C116.526566,286.220093 114.283684,284.054352 111.921310,281.187469 
	C110.226006,276.787872 108.530708,272.388245 106.934151,267.196838 
	C106.901039,266.135529 106.867935,265.074188 106.933327,263.151245 
	C106.686646,253.567200 112.049347,246.688034 118.338768,239.901474 
	C118.400253,239.797745 118.534866,239.626877 118.511307,239.601181 
	C118.360825,239.437225 118.175537,239.305206 117.113914,239.064529 
	C113.448311,238.643829 109.782707,238.223145 105.707748,237.295731 
	C104.472771,236.918503 103.237785,236.541260 101.395309,235.827072 
	C101.121475,235.642746 100.859116,235.437958 100.572189,235.276978 
	C90.625443,229.696838 85.779655,220.597305 85.262390,209.801895 
	C84.770340,199.532578 89.804443,191.132599 98.619545,184.612457 
	C100.431885,183.440781 102.244225,182.269104 104.816978,181.012375 
	C106.547424,180.619781 108.277870,180.227188 110.587486,179.876205 
	C111.076576,179.616760 111.565674,179.357315 112.875534,179.039734 
	C115.252144,179.305206 117.628761,179.570679 120.634239,179.930328 
	C121.462746,179.811722 122.291260,179.693100 124.574211,179.366257 
	C122.470856,178.503342 121.783867,178.221512 120.756020,177.367081 
	C118.542580,175.232056 116.329140,173.097031 113.979858,170.317627 
	C113.343529,169.198669 112.707199,168.079697 111.974327,166.216965 
	C110.683342,159.829361 109.392357,153.441772 108.584534,146.601990 
	C108.668121,145.738403 108.751709,144.874817 108.948616,143.362106 
	C108.999420,142.925766 109.050232,142.489441 109.547653,141.683502 
	C109.643333,141.125473 109.739014,140.567459 110.174324,139.392441 
	C114.523666,131.252335 120.099792,124.356934 129.708328,120.643066 
	C132.134186,120.040466 134.560028,119.437866 137.508179,118.906387 
	C137.683838,118.903008 137.859512,118.899620 138.532654,118.810555 
	C138.745209,118.556084 138.957764,118.301613 139.986725,118.021164 
	C142.935806,118.386360 145.884872,118.751564 149.315765,119.674706 
	C150.531876,119.822311 151.748001,119.969917 153.397507,120.629524 
	C155.887329,122.096809 158.377151,123.564102 161.118225,125.435707 
	C161.322952,125.712463 161.597427,125.850418 162.506866,126.153305 
	C163.472504,126.828789 164.438156,127.504272 165.604477,128.320129 
	C166.857178,123.205894 167.977951,118.630196 169.598663,113.644974 
	C170.344437,112.097252 171.090210,110.549530 172.202240,108.412498 
	C176.571548,101.151230 182.524734,95.528694 189.971924,91.537628 
	C203.291504,84.399429 217.219482,84.785728 230.898499,89.646942 
	C245.557587,94.856453 255.321762,104.679352 256.076385,121.316559 
	C256.105682,121.962212 256.570648,122.588112 256.832581,123.223213 
	C257.708771,112.668427 261.469788,103.673698 269.030060,96.570732 
	C276.564453,89.492073 286.022156,85.807915 296.055847,85.210823 
	C326.772217,83.382935 343.364777,99.541908 348.790833,128.845764 
	C364.795868,117.655991 378.006409,120.127434 389.668030,128.363831 
	C398.141388,134.348419 402.508789,143.330673 402.827271,153.541336 
	C403.139130,163.539536 398.883423,172.246078 391.788849,179.819275 
	C401.864990,177.383926 410.086212,180.864563 418.215088,186.596573 
	C419.463104,187.768341 420.711121,188.940109 422.247498,190.677002 
	C423.145508,191.816544 424.043518,192.956070 425.057373,194.789383 
	C425.998657,196.871613 426.939941,198.953842 427.953125,201.888657 
	C428.268707,205.241547 428.584290,208.594452 428.453186,212.316757 
	C428.357300,212.874695 428.261444,213.432632 428.063751,214.715393 
	C428.024628,215.446259 427.985474,216.177124 427.451385,217.362122 
	C427.273743,218.233063 427.096100,219.103989 426.404724,220.421143 
	C422.021423,230.943481 413.727142,236.580353 402.248016,239.071609 
	C401.502502,239.102844 400.757019,239.134064 399.315552,239.069977 
	C398.181793,239.205521 397.048004,239.341064 395.405487,239.537445 
	C398.248047,242.766525 400.593842,245.431290 403.045502,248.744537 
	C403.678192,249.863937 404.310883,250.983353 405.039307,252.662460 
	C405.326813,253.126968 405.614319,253.591476 405.981293,254.756821 
	C406.375977,255.841263 406.770630,256.925720 407.064148,258.891937 
	C407.097961,261.258545 407.131805,263.625183 407.065857,266.816498 
	C407.004425,268.199249 406.942993,269.581970 406.402252,271.408478 
	C406.229401,272.257782 406.056580,273.107056 405.391510,274.408356 
	C404.585968,276.228607 403.780426,278.048828 402.572113,280.121246 
	C402.296082,280.324921 402.156616,280.598267 401.840485,281.543365 
	C397.371124,287.075653 391.746857,290.934387 384.351257,293.127655 
	C383.571838,293.473755 382.792419,293.819855 381.115204,294.066467 
	C378.118286,294.035675 375.121368,294.004913 371.873352,293.576660 
	C371.671722,293.304108 371.401398,293.165741 370.300659,293.040955 
	C367.879517,292.321747 365.458344,291.602570 362.702698,290.333130 
	C361.148468,289.185211 359.594269,288.037262 357.836029,286.488861 
	C357.653351,286.239471 357.417542,286.059937 356.803192,285.385895 
	C355.238953,283.910095 353.674744,282.434296 351.900391,280.662964 
	C351.655182,280.774780 351.409943,280.886597 351.068176,281.797241 
	C351.100586,282.867798 351.132996,283.938385 351.038086,285.450806 
	C351.038086,285.450806 350.942596,285.900574 350.446472,286.357117 
	C350.352905,287.234711 350.259338,288.112274 349.771271,289.620941 
	C347.162323,294.714508 344.553375,299.808044 341.371185,305.242462 
	C340.209351,306.814850 339.047546,308.387238 337.423584,310.019653 
	C337.423584,310.019653 336.965179,310.103638 336.464111,310.192383 
	C336.249298,310.449036 336.034485,310.705719 335.268158,311.314575 
	C328.178223,315.940491 321.088318,320.566376 313.387146,325.345764 
	C312.293060,326.230591 311.199005,327.115417 309.824615,328.584503 
M298.998016,449.062775 
	C297.955597,439.611786 296.975616,430.153351 295.853912,420.711792 
	C294.638245,410.479218 293.285828,400.262878 292.001740,390.038422 
	C290.716644,379.805603 288.902039,369.599030 288.377319,359.326965 
	C288.088928,353.681519 285.118408,348.027405 288.859039,342.056122 
	C297.674500,327.983795 305.799591,313.481140 314.366150,299.250214 
	C331.836853,270.227356 349.454834,241.293076 366.878326,212.242081 
	C368.420959,209.670029 369.582916,206.570099 369.881195,203.610489 
	C370.615784,196.322296 365.215057,192.739517 360.322876,188.685562 
	C352.591522,182.278976 344.566833,184.711990 339.276642,191.322678 
	C332.522888,199.762314 325.710785,208.155243 318.928406,216.572006 
	C310.917511,226.513306 302.964966,236.502243 294.883392,246.385727 
	C289.998016,252.360352 284.915802,258.174011 278.987915,265.161011 
	C278.987915,260.398102 279.221252,257.103516 278.947876,253.851562 
	C277.709351,239.119568 276.319458,224.400375 275.001312,209.675003 
	C274.385315,202.793564 269.104126,195.760727 261.672882,196.919739 
	C258.582092,197.401794 255.353455,196.997375 252.187500,197.000397 
	C245.262405,197.007019 241.320923,199.204361 240.120850,206.081924 
	C238.407501,215.901108 237.976776,225.944183 236.999969,235.891800 
	C236.259293,243.434509 235.521347,250.977509 234.715836,259.197296 
	C220.659012,245.144318 207.205338,231.753372 193.828674,218.285919 
	C189.736008,214.165497 182.367599,212.185410 176.961441,216.490555 
	C175.169983,217.917175 173.433517,219.419601 171.580048,220.760406 
	C164.373535,225.973618 163.114456,232.864151 167.720062,240.259094 
	C173.318665,249.248474 178.681259,258.385223 184.117950,267.474976 
	C196.578857,288.308746 209.045746,309.139008 221.451569,330.005585 
	C223.586807,333.597076 227.024231,337.332001 227.090515,341.050079 
	C227.241318,349.508728 225.746017,358.006653 224.781235,366.472809 
	C223.594406,376.887268 222.236832,387.282166 221.010330,397.692261 
	C220.185379,404.694061 219.489105,411.710907 218.682556,418.714966 
	C217.484421,429.119385 216.239670,439.518463 214.077789,449.972595 
	C161.598358,449.981689 109.118919,449.990509 56.639484,450.001221 
	C54.973591,450.001556 53.297344,449.905640 51.643795,450.053894 
	C47.181526,450.453979 44.909142,454.777985 46.954784,458.786743 
	C48.953445,462.703369 52.471355,463.022888 56.299656,463.022125 
	C190.080948,462.995148 323.862244,463.001068 457.643555,462.995209 
	C464.041260,462.994934 467.879211,460.356140 467.905243,456.024475 
	C467.930908,451.750763 465.037445,450.003723 457.921509,450.000122 
	C404.942688,449.973206 351.963837,449.946777 298.998016,449.062775 
M271.848724,487.016235 
	C286.999146,487.010773 302.149628,487.019318 317.299988,486.990326 
	C321.268524,486.982727 324.549866,484.115906 324.686859,480.666901 
	C324.819824,477.320435 321.467834,474.017975 317.706909,474.015686 
	C277.250244,473.990814 236.793549,473.988251 196.336975,474.051483 
	C194.975662,474.053589 192.888718,474.412781 192.398941,475.300262 
	C191.203735,477.466095 189.931046,480.133514 190.192978,482.427307 
	C190.555206,485.599396 193.125732,487.082581 196.656616,487.054230 
	C212.272446,486.928772 227.889862,486.999939 243.745514,486.999939 
	C243.745514,488.791962 243.745514,490.176880 243.745514,492.003632 
	C235.927292,492.003632 228.302582,491.899811 220.682480,492.042480 
	C216.093964,492.128418 213.762543,494.805603 214.019119,499.347778 
	C214.248886,503.415436 216.631821,505.025421 220.568985,505.019379 
	C245.875153,504.980591 271.181458,505.016937 296.487518,504.951691 
	C297.860413,504.948151 300.024689,504.651398 300.450684,503.803162 
	C301.600922,501.512665 303.112640,498.460480 302.400116,496.446777 
	C301.707794,494.490051 298.496796,492.326477 296.281433,492.200897 
	C287.688538,491.713776 279.051666,492.002686 269.712128,492.002686 
	C270.209229,489.986237 270.564545,488.544952 271.848724,487.016235 
M350.487183,487.000519 
	C353.804840,487.000275 357.123047,487.039337 360.439972,486.990295 
	C365.049225,486.922150 367.021637,484.870544 367.009338,480.386200 
	C366.997681,476.143372 365.010376,473.975372 360.686035,473.991547 
	C352.557953,474.021973 344.429596,474.020508 336.301483,473.991821 
	C331.991028,473.976593 329.983185,476.115387 329.990112,480.371307 
	C329.997437,484.877869 331.955933,486.933624 336.555328,486.988983 
	C340.867645,487.040863 345.181061,487.000366 350.487183,487.000519 
M177.109192,473.999603 
	C169.306229,473.999634 161.503128,473.971802 153.700348,474.010254 
	C149.130219,474.032776 147.001373,476.141937 147.000107,480.487579 
	C146.998825,484.860077 149.103714,486.960968 153.702240,486.987549 
	C161.504944,487.032623 169.309250,486.920563 177.110565,487.034241 
	C180.965958,487.090424 183.499695,485.682465 183.971512,481.689850 
	C184.530823,476.956512 182.802032,474.826721 177.109192,473.999603 
M162.267746,67.876350 
	C163.268188,66.399048 164.436401,65.006714 165.236099,63.427746 
	C167.250687,59.450050 165.975677,55.388100 163.054596,53.082146 
	C160.721298,51.240196 156.663437,50.438499 153.634277,50.900631 
	C149.479370,51.534504 146.968185,54.726242 146.907135,59.446396 
	C146.800125,67.721832 152.984482,71.481575 162.267746,67.876350 
M20.539728,452.006317 
	C17.894495,456.823029 19.228094,462.131226 23.761576,462.671234 
	C28.097435,463.187653 32.702484,462.827850 36.966450,461.865875 
	C38.614250,461.494080 40.630127,458.440582 40.695618,456.547180 
	C40.765049,454.539764 38.820877,450.778320 37.574642,450.700836 
	C32.127045,450.362030 26.613564,451.082672 20.539728,452.006317 
M477.275360,450.145905 
	C473.828217,451.518585 472.500549,454.071930 473.130737,457.675171 
	C473.804901,461.529785 476.744995,462.770782 480.019379,462.861694 
	C483.626556,462.961792 487.299896,462.673553 490.856537,462.051666 
	C494.613373,461.394775 495.723694,458.012939 494.710754,455.172455 
	C493.958069,453.061798 491.297028,450.759705 489.087463,450.241241 
	C485.615356,449.426514 481.807648,450.041962 477.275360,450.145905 
M38.569519,167.857681 
	C39.856667,167.957230 41.143814,168.056778 42.785084,168.183716 
	C41.880756,169.900299 41.099548,171.383179 40.248859,172.997940 
	C41.533195,173.654831 42.627052,174.214310 43.992592,174.912720 
	C44.913490,173.005936 45.731377,171.312439 46.578957,169.557465 
	C47.687294,171.472641 48.783737,173.367279 49.828846,175.173203 
	C54.381264,173.025574 51.716408,170.656784 50.268295,168.154358 
	C52.339981,168.034424 54.050278,167.935425 55.663250,167.842041 
	C57.105286,161.980240 52.315548,164.938187 50.437721,163.565277 
	C51.692413,161.314697 54.543819,158.711090 49.710983,157.031097 
	C48.689854,158.679047 47.700172,160.276230 46.644787,161.979446 
	C45.609127,160.189621 44.721424,158.655502 43.808956,157.078568 
	C42.479694,157.844086 41.376133,158.479630 40.274212,159.114227 
	C41.140011,160.730453 41.923794,162.193573 42.904499,164.024292 
	C40.139931,164.001801 37.230762,163.216171 38.569519,167.857681 
M400.119080,18.306747 
	C401.897186,18.685907 403.675262,19.065067 405.440552,19.441492 
	C404.532867,21.179113 403.721130,22.733126 402.818420,24.461201 
	C404.203888,25.046913 405.324890,25.520823 406.316040,25.939838 
	C407.437012,24.120672 408.355621,22.629944 409.316986,21.069845 
	C410.178986,22.946899 410.893372,24.502522 411.578827,25.995085 
	C417.976166,24.222118 413.355103,21.505392 412.343262,19.190048 
	C418.025818,18.860401 418.025818,18.860401 417.248505,14.954975 
	C415.707581,15.313593 414.174469,15.670393 413.074310,15.926426 
	C413.383667,13.726333 413.680389,11.615731 413.977142,9.505126 
	C412.186371,10.443898 410.395569,11.382670 408.544250,12.353183 
	C405.964813,8.446051 405.964813,8.446051 403.094543,10.873467 
	C403.963776,12.445710 404.832977,14.017953 405.536682,15.290823 
	C403.858795,17.494709 400.102203,11.715981 400.119080,18.306747 
M466.873566,142.210754 
	C468.762512,139.137543 468.183838,135.893417 465.421875,134.360855 
	C463.347870,133.210052 459.677460,133.037476 457.717682,134.165985 
	C456.078217,135.110046 455.184082,138.604172 455.297058,140.903381 
	C455.374969,142.489151 457.693237,145.172623 459.082794,145.219543 
	C461.520569,145.301865 464.013916,143.737930 466.873566,142.210754 
M7.013796,90.503769 
	C6.836676,95.055542 9.759480,96.680672 13.573793,96.887245 
	C17.827871,97.117630 19.377893,93.783295 19.762196,90.461174 
	C20.180996,86.840866 17.823517,84.540855 14.208915,84.105461 
	C10.118933,83.612808 7.499161,85.364792 7.013796,90.503769 
M506.131439,74.568199 
	C502.180267,71.053024 497.835083,70.927299 495.460785,74.259415 
	C493.178375,77.462555 493.872070,81.837921 497.578247,83.550262 
	C499.491791,84.434372 502.465790,84.427406 504.398102,83.564064 
	C508.024597,81.943794 507.156067,78.395157 506.131439,74.568199 
M376.348083,72.438034 
	C375.439972,73.585434 374.282410,74.614357 373.670593,75.902481 
	C371.842865,79.750519 373.897675,82.169159 377.072388,83.973602 
	C380.448425,85.892448 383.205719,84.871788 385.005524,81.706894 
	C386.850372,78.462730 386.669098,75.074631 383.251953,73.064484 
	C381.600250,72.092850 379.179169,72.429184 376.348083,72.438034 
M50.127922,24.614557 
	C51.387585,23.616999 52.647247,22.619440 53.382648,22.037058 
	C54.904934,22.723774 56.360252,23.380281 57.815571,24.036789 
	C57.947460,22.454998 58.079346,20.873207 58.224995,19.126366 
	C58.958118,19.052683 60.408016,18.906963 61.857918,18.761242 
	C62.016884,18.243847 62.175850,17.726452 62.334812,17.209055 
	C60.588409,16.515118 58.842007,15.821179 57.639648,15.343418 
	C57.807343,13.558732 57.964977,11.881101 58.122612,10.203470 
	C57.608566,10.123025 57.094521,10.042580 56.580475,9.962134 
	C55.625755,11.217405 54.671036,12.472676 54.424557,12.796748 
	C52.551765,12.004389 51.114601,11.396339 49.677437,10.788290 
	C49.778610,12.485053 49.879784,14.181816 49.990177,16.033157 
	C48.881443,15.769620 47.654709,15.478034 46.451485,15.192038 
	C44.406498,19.899359 48.455200,18.704481 49.645119,18.966820 
	C49.645119,21.051296 49.645119,22.577190 50.127922,24.614557 
M249.093750,19.034870 
	C254.773285,16.870155 246.262466,15.454138 248.799362,13.455235 
	C248.010849,13.080369 247.222351,12.705504 246.433838,12.330638 
	C246.128738,13.010506 245.823654,13.690373 245.627899,14.126587 
	C244.662796,13.379551 243.708923,12.641194 242.581604,11.768594 
	C241.706055,15.747868 239.283951,19.366758 244.082947,23.221546 
	C244.541794,22.432249 245.099762,21.472464 245.548996,20.699699 
	C246.304077,21.522091 246.911560,22.183706 248.414581,23.820702 
	C248.414581,21.517313 248.414581,20.389839 249.093750,19.034870 
z"/>
<path fill="#2D4356" opacity="1.000000" stroke="none" 
	d="
M513.000000,460.545898 
	C511.629486,461.503510 510.206238,462.527679 508.900055,462.395477 
	C506.614166,462.164124 503.727295,461.858887 502.346710,460.398590 
	C500.986267,458.959564 500.254242,455.684418 500.960297,453.888702 
	C501.643890,452.150085 504.366669,450.751190 506.461273,450.174347 
	C508.161743,449.706055 510.258514,450.676727 512.589722,451.004639 
	C513.000000,454.030609 513.000000,457.061188 513.000000,460.545898 
z"/>
<path fill="#2D4356" opacity="1.000000" stroke="none" 
	d="
M1.000000,451.454102 
	C2.761142,450.669312 4.512134,450.263306 6.285623,450.024170 
	C9.606571,449.576324 12.666446,450.513580 13.297292,453.973816 
	C13.677192,456.057648 12.857098,458.883545 11.565282,460.626801 
	C9.603520,463.274109 6.557936,463.634125 3.543154,461.790894 
	C2.980525,461.446930 2.349826,461.214325 1.375276,460.965149 
	C1.000000,457.969391 1.000000,454.938812 1.000000,451.454102 
z"/>
<path fill="#2D4356" opacity="1.000000" stroke="none" 
	d="
M372.124451,293.974152 
	C375.121368,294.004913 378.118286,294.035675 381.691345,294.367126 
	C383.178040,294.166931 384.088623,293.666046 384.999207,293.165161 
	C391.746857,290.934387 397.371124,287.075653 402.150085,281.076904 
	C402.654602,280.379456 402.826355,280.132324 402.974915,279.869080 
	C403.780426,278.048828 404.585968,276.228607 405.959869,274.153076 
	C408.995575,273.203156 409.232727,272.239838 406.881561,270.964722 
	C406.942993,269.581970 407.004425,268.199249 407.439270,266.288544 
	C411.285034,262.869080 410.379791,260.343170 407.165314,258.010162 
	C406.770630,256.925720 406.375977,255.841263 406.115814,254.179413 
	C406.166901,252.734680 406.083435,251.867340 405.987701,250.655304 
	C405.752533,248.490784 405.580841,246.600830 402.939667,248.096039 
	C400.593842,245.431290 398.248047,242.766525 395.405487,239.537445 
	C397.048004,239.341064 398.181793,239.205521 399.780701,239.363892 
	C401.160522,239.493713 402.075195,239.329636 402.989868,239.165558 
	C413.727142,236.580353 422.021423,230.943481 426.921997,220.104752 
	C427.608276,218.828247 427.777313,217.868118 427.946350,216.907990 
	C427.985474,216.177124 428.024628,215.446259 428.329651,214.265076 
	C428.696960,213.192291 428.798431,212.569809 428.899902,211.947342 
	C428.584290,208.594452 428.268707,205.241547 428.215729,201.325638 
	C430.147736,196.528946 429.056488,194.471878 424.941528,194.095612 
	C424.043518,192.956070 423.145508,191.816544 422.093323,190.009125 
	C420.588989,188.241074 419.238800,187.140884 417.888611,186.040695 
	C410.086212,180.864563 401.864990,177.383926 391.788849,179.819275 
	C398.883423,172.246078 403.139130,163.539536 402.827271,153.541336 
	C402.508789,143.330673 398.141388,134.348419 389.668030,128.363831 
	C378.006409,120.127434 364.795868,117.655991 348.790833,128.845764 
	C343.364777,99.541908 326.772217,83.382935 296.055847,85.210823 
	C286.022156,85.807915 276.564453,89.492073 269.030060,96.570732 
	C261.469788,103.673698 257.708771,112.668427 256.832581,123.223213 
	C256.570648,122.588112 256.105682,121.962212 256.076385,121.316559 
	C255.321762,104.679352 245.557587,94.856453 230.898499,89.646942 
	C217.219482,84.785728 203.291504,84.399429 189.971924,91.537628 
	C182.524734,95.528694 176.571548,101.151230 171.674255,108.747620 
	C168.150299,109.787216 167.468857,111.444908 169.098740,114.054489 
	C167.977951,118.630196 166.857178,123.205894 165.604477,128.320129 
	C164.438156,127.504272 163.472504,126.828789 162.058609,125.848633 
	C161.378922,125.349365 161.131119,125.178513 160.866974,125.031395 
	C158.377151,123.564102 155.887329,122.096809 153.068375,120.079300 
	C151.437485,119.391640 150.135712,119.254196 148.833954,119.116760 
	C145.884872,118.751564 142.935806,118.386360 139.375061,118.156303 
	C138.500778,118.469086 138.258041,118.670685 138.035202,118.896240 
	C137.859512,118.899620 137.683838,118.903008 137.059982,118.573074 
	C133.153931,116.405014 130.099411,115.752487 129.001801,120.835991 
	C120.099792,124.356934 114.523666,131.252335 109.789482,139.788864 
	C109.303436,140.807892 109.202232,141.430496 109.101036,142.053101 
	C109.050232,142.489441 108.999420,142.925766 108.640137,143.806641 
	C108.254898,145.185516 108.178139,146.119843 108.101379,147.054169 
	C109.392357,153.441772 110.683342,159.829361 111.848404,166.848419 
	C112.520218,168.640594 113.317955,169.801300 114.115692,170.962006 
	C116.329140,173.097031 118.542580,175.232056 120.741150,177.859741 
	C120.485970,178.846970 120.245667,179.341553 120.005371,179.836151 
	C117.628761,179.570679 115.252144,179.305206 112.274147,178.941437 
	C111.117943,179.173630 110.563126,179.504105 110.008308,179.834595 
	C108.277870,180.227188 106.547424,180.619781 104.162094,180.871857 
	C100.037323,179.882095 98.442848,181.565948 98.001656,184.807495 
	C89.804443,191.132599 84.770340,199.532578 85.262390,209.801895 
	C85.779655,220.597305 90.625443,229.696838 100.572189,235.276978 
	C100.859116,235.437958 101.121475,235.642746 101.754730,236.319901 
	C103.448471,237.142639 104.782784,237.472534 106.117104,237.802444 
	C109.782707,238.223145 113.448311,238.643829 117.567566,239.351120 
	C118.021210,239.637711 118.042549,240.112900 118.042549,240.112900 
	C112.049347,246.688034 106.686646,253.567200 106.619713,263.722931 
	C106.482536,265.525970 106.658974,266.757294 106.835411,267.988647 
	C108.530708,272.388245 110.226006,276.787872 111.983162,281.927765 
	C112.273415,287.154388 114.813736,289.043793 119.111534,288.959076 
	C120.941856,289.778320 122.772171,290.597565 124.898849,291.996826 
	C126.646385,295.242645 128.314575,296.941803 131.049149,293.891113 
	C135.732468,293.584808 140.415787,293.278473 145.769012,293.104126 
	C147.292679,292.514923 148.146439,291.793732 149.000183,291.072571 
	C153.463303,287.807770 157.926407,284.542938 162.699615,281.051270 
	C163.875595,293.734589 169.758133,304.149170 179.667999,311.994110 
	C185.185898,316.362244 191.089691,320.610901 197.476501,323.419678 
	C205.355728,326.884796 210.806015,332.076477 214.315994,339.680756 
	C214.732132,340.582336 215.209122,341.455841 215.481888,342.762817 
	C214.849533,343.496399 214.393173,343.809509 213.936813,344.122620 
	C197.717651,339.825043 182.545944,333.370544 170.238434,321.616364 
	C165.628036,317.213257 161.642014,312.129913 157.598785,307.171265 
	C155.766464,304.924133 154.398392,303.935150 151.049789,304.672150 
	C144.808136,306.045898 138.308258,306.246399 131.333618,306.634277 
	C129.821732,306.246643 128.892090,306.159882 127.962456,306.073120 
	C127.522926,306.030426 127.083405,305.987762 126.229340,305.675262 
	C125.192024,305.304199 124.569267,305.202942 123.946503,305.101715 
	C119.830963,303.139099 115.715431,301.176483 111.286392,298.701660 
	C109.963524,297.492462 108.954155,296.795471 107.944778,296.098450 
	C95.057487,285.194397 91.961136,270.856903 94.693840,255.144913 
	C95.608002,249.888809 94.809784,247.505585 90.416336,244.462952 
	C71.831215,231.592087 66.475639,206.547714 78.052750,187.043747 
	C82.114426,180.201050 87.766602,174.494400 95.803345,171.091797 
	C96.890968,170.716583 97.420692,170.288239 97.950417,169.859894 
	C96.988708,162.871765 96.027000,155.883621 95.366882,148.322052 
	C95.745575,146.814499 95.822678,145.880386 95.899780,144.946274 
	C96.519211,131.375214 104.004173,121.884735 114.866936,114.151329 
	C116.644569,113.226509 117.821548,112.195236 118.998528,111.163971 
	C126.115181,106.877136 133.898727,105.120148 142.663391,105.410667 
	C144.261536,107.724548 145.438904,108.663673 146.988220,106.165787 
	C150.327484,106.555420 153.666763,106.945061 157.470734,107.388916 
	C158.145538,106.306999 159.066315,104.830704 160.541550,103.048424 
	C162.364197,100.476936 163.632401,98.211449 164.900604,95.945961 
	C166.390854,94.044815 167.881088,92.143669 169.923950,90.238083 
	C171.273422,89.092453 172.070282,87.951256 172.867142,86.810059 
	C184.635544,77.191818 198.208252,72.661026 213.308380,73.051132 
	C228.843124,73.452477 242.882172,78.273048 254.907944,88.381287 
	C255.401001,88.795708 255.958588,89.133331 256.463715,89.490898 
	C287.852051,59.553085 341.790039,67.862213 357.637268,109.658821 
	C366.305817,107.595139 375.045837,107.538963 383.757080,110.352280 
	C405.859039,117.490143 420.016327,140.209412 414.900238,163.029984 
	C413.854523,167.694397 415.238312,169.615936 419.210632,171.165512 
	C421.137573,171.917175 422.714294,173.566574 424.919586,175.134857 
	C425.620392,175.654953 425.867279,175.826599 426.130280,175.975082 
	C434.574280,183.522110 440.884796,192.190109 440.675293,204.677917 
	C440.650818,205.816818 440.883911,206.426239 441.117035,207.035675 
	C442.179840,218.544113 438.839386,228.684143 431.064087,237.842041 
	C430.044525,238.730789 429.574127,239.394089 429.103729,240.057388 
	C428.315063,240.690094 427.526367,241.322800 426.062042,242.046082 
	C424.640930,242.972946 423.895447,243.809235 423.149963,244.645508 
	C421.456757,246.516846 419.763519,248.388168 417.818420,250.727631 
	C415.514282,253.249512 417.082977,253.665588 418.834381,253.999039 
	C421.617584,263.308075 420.575287,272.363312 416.607300,281.662415 
	C413.894226,282.561432 412.529358,283.538025 414.098297,286.054626 
	C413.615723,286.943085 413.133148,287.831543 412.028198,288.902954 
	C409.069366,289.497833 407.485626,290.347260 409.098724,293.054932 
	C408.603668,293.625641 408.108643,294.196350 407.006866,294.922028 
	C404.872162,295.707245 401.610992,294.941162 403.672150,298.463043 
	C402.365997,299.289215 401.059845,300.115356 399.136810,300.895569 
	C397.743073,301.457031 396.966187,302.064484 396.189331,302.671936 
	C395.336121,303.111145 394.482880,303.550354 393.068115,303.852234 
	C391.006775,304.421417 389.506897,305.127899 388.007050,305.834381 
	C381.277679,305.902588 374.548279,305.970764 367.346527,305.603210 
	C365.231415,304.810944 363.588684,304.454376 361.945953,304.097809 
	C356.445099,303.598267 356.260681,309.014679 353.045410,311.678833 
	C351.352997,312.483368 350.176514,313.241699 348.712952,314.075806 
	C348.323334,315.113464 348.220795,316.075348 348.118225,317.037262 
	C346.982422,318.270782 345.846619,319.504333 344.047974,320.909180 
	C341.336639,321.619690 338.490753,321.502197 340.107880,325.060120 
	C332.660217,329.359039 325.212555,333.657959 317.205048,337.866455 
	C316.066315,337.761719 315.487396,337.747406 314.908478,337.733093 
	C314.970642,338.174927 315.032806,338.616760 315.094971,339.058594 
	C310.845154,340.652740 306.595367,342.246918 301.110474,344.304352 
	C302.351044,341.668610 303.072418,340.135956 304.285828,338.288208 
	C308.658386,337.028564 309.005371,336.368256 306.883942,333.965118 
	C307.364563,333.069183 307.845215,332.173248 308.930237,331.045044 
	C310.356415,329.875153 311.178192,328.937592 312.284180,327.878296 
	C313.045013,326.901825 313.521698,326.047058 313.998383,325.192261 
	C321.088318,320.566376 328.178223,315.940491 335.749115,311.014343 
	C336.494965,310.534546 336.739990,310.331055 336.965179,310.103638 
	C336.965179,310.103638 337.423584,310.019653 338.022400,309.968811 
	C341.685028,309.541718 343.597076,308.402435 341.944397,304.901611 
	C344.553375,299.808044 347.162323,294.714508 350.205811,289.192261 
	C350.741058,287.809265 350.841827,286.854919 350.942596,285.900574 
	C350.942596,285.900574 351.038086,285.450806 351.465424,285.315857 
	C353.638031,285.437317 355.383270,285.693787 357.128540,285.950256 
	C357.417542,286.059937 357.653351,286.239471 357.959991,287.050842 
	C358.907684,289.956055 359.018890,293.378387 363.037201,290.883362 
	C365.458344,291.602570 367.879517,292.321747 370.845337,293.252625 
	C371.618927,293.657135 371.863708,293.827087 372.124451,293.974152 
z"/>
<path fill="#0BCEB2" opacity="1.000000" stroke="none" 
	d="
M215.014771,449.919800 
	C216.239670,439.518463 217.484421,429.119385 218.682556,418.714966 
	C219.489105,411.710907 220.185379,404.694061 221.010330,397.692261 
	C222.236832,387.282166 223.594406,376.887268 224.781235,366.472809 
	C225.746017,358.006653 227.241318,349.508728 227.090515,341.050079 
	C227.024231,337.332001 223.586807,333.597076 221.451569,330.005585 
	C209.045746,309.139008 196.578857,288.308746 184.117950,267.474976 
	C178.681259,258.385223 173.318665,249.248474 167.720062,240.259094 
	C163.114456,232.864151 164.373535,225.973618 171.580048,220.760406 
	C173.433517,219.419601 175.169983,217.917175 176.961441,216.490555 
	C182.367599,212.185410 189.736008,214.165497 193.828674,218.285919 
	C207.205338,231.753372 220.659012,245.144318 234.715836,259.197296 
	C235.521347,250.977509 236.259293,243.434509 236.999969,235.891800 
	C237.976776,225.944183 238.407501,215.901108 240.120850,206.081924 
	C241.320923,199.204361 245.262405,197.007019 252.187500,197.000397 
	C255.353455,196.997375 258.582092,197.401794 261.672882,196.919739 
	C269.104126,195.760727 274.385315,202.793564 275.001312,209.675003 
	C276.319458,224.400375 277.709351,239.119568 278.947876,253.851562 
	C279.221252,257.103516 278.987915,260.398102 278.987915,265.161011 
	C284.915802,258.174011 289.998016,252.360352 294.883392,246.385727 
	C302.964966,236.502243 310.917511,226.513306 318.928406,216.572006 
	C325.710785,208.155243 332.522888,199.762314 339.276642,191.322678 
	C344.566833,184.711990 352.591522,182.278976 360.322876,188.685562 
	C365.215057,192.739517 370.615784,196.322296 369.881195,203.610489 
	C369.582916,206.570099 368.420959,209.670029 366.878326,212.242081 
	C349.454834,241.293076 331.836853,270.227356 314.366150,299.250214 
	C305.799591,313.481140 297.674500,327.983795 288.859039,342.056122 
	C285.118408,348.027405 288.088928,353.681519 288.377319,359.326965 
	C288.902039,369.599030 290.716644,379.805603 292.001740,390.038422 
	C293.285828,400.262878 294.638245,410.479218 295.853912,420.711792 
	C296.975616,430.153351 297.955597,439.611786 298.529449,449.521484 
	C294.045380,449.960541 290.029877,449.940887 285.849396,449.549194 
	C284.683624,441.617920 283.682861,434.058624 282.662903,426.354614 
	C265.473480,426.354614 248.313950,426.354614 231.139542,426.354614 
	C230.730499,430.952728 230.486557,435.218628 229.933212,439.444000 
	C229.472610,442.961182 228.648712,446.430756 227.524475,449.949707 
	C223.047073,449.958588 219.030914,449.939178 215.014771,449.919800 
M314.063110,243.645935 
	C299.386292,261.747833 284.709473,279.849731 269.271576,298.890289 
	C266.622925,268.312622 264.114655,239.355881 261.598541,210.308350 
	C258.419525,210.308350 255.361588,210.308350 252.391281,210.308350 
	C250.121384,236.715805 247.878418,262.809814 245.530838,290.120880 
	C224.550461,268.679260 204.400146,248.085938 184.324570,227.569000 
	C182.140427,229.334045 180.626038,230.557846 179.014664,231.860016 
	C179.476044,232.851044 179.867813,233.922836 180.440231,234.887421 
	C188.753418,248.895813 197.110352,262.878296 205.417618,276.890167 
	C216.549149,295.665680 227.755997,314.398407 238.638351,333.317566 
	C240.229630,336.084015 241.044617,339.850525 240.775879,343.032471 
	C239.867416,353.789368 238.319870,364.492706 236.996490,375.214020 
	C236.074219,382.685791 235.036453,390.144318 234.207489,397.626190 
	C233.655197,402.610962 233.379593,407.626434 232.977310,412.664062 
	C249.344467,412.664062 265.084869,412.664062 280.958801,412.664062 
	C280.958801,410.668854 281.140656,408.985352 280.927246,407.353516 
	C280.016266,400.388367 278.895050,393.450226 278.024750,386.480438 
	C276.625275,375.272491 274.994080,364.072540 274.226654,352.817017 
	C273.922729,348.360107 272.039337,343.725891 274.904816,339.083649 
	C283.293396,325.493622 291.332733,311.688263 299.538971,297.985260 
	C317.444733,268.085754 335.389740,238.209763 353.267334,208.293442 
	C356.599365,202.717590 356.488464,202.651321 350.619507,198.993088 
	C345.729736,205.075897 340.878693,211.223373 335.905396,217.270309 
	C328.807404,225.900604 321.619812,234.457184 314.063110,243.645935 
z"/>
<path fill="#2D4356" opacity="1.000000" stroke="none" 
	d="
M214.546280,449.946198 
	C219.030914,449.939178 223.047073,449.958588 227.992905,449.975769 
	C247.953186,449.956146 266.983795,449.938690 286.014374,449.921234 
	C290.029877,449.940887 294.045380,449.960541 298.522949,449.950195 
	C351.963837,449.946777 404.942688,449.973206 457.921509,450.000122 
	C465.037445,450.003723 467.930908,451.750763 467.905243,456.024475 
	C467.879211,460.356140 464.041260,462.994934 457.643555,462.995209 
	C323.862244,463.001068 190.080948,462.995148 56.299656,463.022125 
	C52.471355,463.022888 48.953445,462.703369 46.954784,458.786743 
	C44.909142,454.777985 47.181526,450.453979 51.643795,450.053894 
	C53.297344,449.905640 54.973591,450.001556 56.639484,450.001221 
	C109.118919,449.990509 161.598358,449.981689 214.546280,449.946198 
z"/>
<path fill="#0BCEB2" opacity="1.000000" stroke="none" 
	d="
M271.384277,487.059937 
	C270.564545,488.544952 270.209229,489.986237 269.712128,492.002686 
	C279.051666,492.002686 287.688538,491.713776 296.281433,492.200897 
	C298.496796,492.326477 301.707794,494.490051 302.400116,496.446777 
	C303.112640,498.460480 301.600922,501.512665 300.450684,503.803162 
	C300.024689,504.651398 297.860413,504.948151 296.487518,504.951691 
	C271.181458,505.016937 245.875153,504.980591 220.568985,505.019379 
	C216.631821,505.025421 214.248886,503.415436 214.019119,499.347778 
	C213.762543,494.805603 216.093964,492.128418 220.682480,492.042480 
	C228.302582,491.899811 235.927292,492.003632 243.745514,492.003632 
	C243.745514,490.176880 243.745514,488.791962 243.745514,486.999939 
	C227.889862,486.999939 212.272446,486.928772 196.656616,487.054230 
	C193.125732,487.082581 190.555206,485.599396 190.192978,482.427307 
	C189.931046,480.133514 191.203735,477.466095 192.398941,475.300262 
	C192.888718,474.412781 194.975662,474.053589 196.336975,474.051483 
	C236.793549,473.988251 277.250244,473.990814 317.706909,474.015686 
	C321.467834,474.017975 324.819824,477.320435 324.686859,480.666901 
	C324.549866,484.115906 321.268524,486.982727 317.299988,486.990326 
	C302.149628,487.019318 286.999146,487.010773 271.384277,487.059937 
z"/>
<path fill="#0BCEB2" opacity="1.000000" stroke="none" 
	d="
M349.990601,487.000519 
	C345.181061,487.000366 340.867645,487.040863 336.555328,486.988983 
	C331.955933,486.933624 329.997437,484.877869 329.990112,480.371307 
	C329.983185,476.115387 331.991028,473.976593 336.301483,473.991821 
	C344.429596,474.020508 352.557953,474.021973 360.686035,473.991547 
	C365.010376,473.975372 366.997681,476.143372 367.009338,480.386200 
	C367.021637,484.870544 365.049225,486.922150 360.439972,486.990295 
	C357.123047,487.039337 353.804840,487.000275 349.990601,487.000519 
z"/>
<path fill="#0BCEB2" opacity="1.000000" stroke="none" 
	d="
M177.562744,473.999908 
	C182.802032,474.826721 184.530823,476.956512 183.971512,481.689850 
	C183.499695,485.682465 180.965958,487.090424 177.110565,487.034241 
	C169.309250,486.920563 161.504944,487.032623 153.702240,486.987549 
	C149.103714,486.960968 146.998825,484.860077 147.000107,480.487579 
	C147.001373,476.141937 149.130219,474.032776 153.700348,474.010254 
	C161.503128,473.971802 169.306229,473.999634 177.562744,473.999908 
z"/>
<path fill="#263848" opacity="1.000000" stroke="none" 
	d="
M161.917725,68.037003 
	C152.984482,71.481575 146.800125,67.721832 146.907135,59.446396 
	C146.968185,54.726242 149.479370,51.534504 153.634277,50.900631 
	C156.663437,50.438499 160.721298,51.240196 163.054596,53.082146 
	C165.975677,55.388100 167.250687,59.450050 165.236099,63.427746 
	C164.436401,65.006714 163.268188,66.399048 161.917725,68.037003 
z"/>
<path fill="#2D4356" opacity="1.000000" stroke="none" 
	d="
M20.831860,451.712555 
	C26.613564,451.082672 32.127045,450.362030 37.574642,450.700836 
	C38.820877,450.778320 40.765049,454.539764 40.695618,456.547180 
	C40.630127,458.440582 38.614250,461.494080 36.966450,461.865875 
	C32.702484,462.827850 28.097435,463.187653 23.761576,462.671234 
	C19.228094,462.131226 17.894495,456.823029 20.831860,451.712555 
z"/>
<path fill="#2D4356" opacity="1.000000" stroke="none" 
	d="
M477.708710,450.098877 
	C481.807648,450.041962 485.615356,449.426514 489.087463,450.241241 
	C491.297028,450.759705 493.958069,453.061798 494.710754,455.172455 
	C495.723694,458.012939 494.613373,461.394775 490.856537,462.051666 
	C487.299896,462.673553 483.626556,462.961792 480.019379,462.861694 
	C476.744995,462.770782 473.804901,461.529785 473.130737,457.675171 
	C472.500549,454.071930 473.828217,451.518585 477.708710,450.098877 
z"/>
<path fill="#0BCEB2" opacity="1.000000" stroke="none" 
	d="
M38.331303,167.528458 
	C37.230762,163.216171 40.139931,164.001801 42.904499,164.024292 
	C41.923794,162.193573 41.140011,160.730453 40.274212,159.114227 
	C41.376133,158.479630 42.479694,157.844086 43.808956,157.078568 
	C44.721424,158.655502 45.609127,160.189621 46.644787,161.979446 
	C47.700172,160.276230 48.689854,158.679047 49.710983,157.031097 
	C54.543819,158.711090 51.692413,161.314697 50.437721,163.565277 
	C52.315548,164.938187 57.105286,161.980240 55.663250,167.842041 
	C54.050278,167.935425 52.339981,168.034424 50.268295,168.154358 
	C51.716408,170.656784 54.381264,173.025574 49.828846,175.173203 
	C48.783737,173.367279 47.687294,171.472641 46.578957,169.557465 
	C45.731377,171.312439 44.913490,173.005936 43.992592,174.912720 
	C42.627052,174.214310 41.533195,173.654831 40.248859,172.997940 
	C41.099548,171.383179 41.880756,169.900299 42.785084,168.183716 
	C41.143814,168.056778 39.856667,167.957230 38.331303,167.528458 
z"/>
<path fill="#0BCEB2" opacity="1.000000" stroke="none" 
	d="
M400.069641,17.898289 
	C400.102203,11.715981 403.858795,17.494709 405.536682,15.290823 
	C404.832977,14.017953 403.963776,12.445710 403.096191,10.876465 
	C405.964813,8.446051 405.964813,8.446051 408.544250,12.353183 
	C410.395569,11.382670 412.186371,10.443898 413.977142,9.505128 
	C413.680389,11.615731 413.383667,13.726333 413.074310,15.926426 
	C414.174469,15.670393 415.707581,15.313593 417.248505,14.954975 
	C418.025818,18.860401 418.025818,18.860401 412.343262,19.190048 
	C413.355103,21.505392 417.976166,24.222118 411.578827,25.995085 
	C410.893372,24.502522 410.178986,22.946899 409.316986,21.069845 
	C408.355621,22.629944 407.437012,24.120672 406.316040,25.939838 
	C405.324890,25.520823 404.203888,25.046913 402.818420,24.461201 
	C403.721130,22.733126 404.532867,21.179113 405.440552,19.441492 
	C403.675262,19.065067 401.897186,18.685907 400.069641,17.898289 
z"/>
<path fill="#2D4356" opacity="1.000000" stroke="none" 
	d="
M466.678772,142.537170 
	C464.013916,143.737930 461.520569,145.301865 459.082794,145.219543 
	C457.693237,145.172623 455.374969,142.489151 455.297058,140.903381 
	C455.184082,138.604172 456.078217,135.110046 457.717682,134.165985 
	C459.677460,133.037476 463.347870,133.210052 465.421875,134.360855 
	C468.183838,135.893417 468.762512,139.137543 466.678772,142.537170 
z"/>
<path fill="#2D4356" opacity="1.000000" stroke="none" 
	d="
M7.018847,90.099457 
	C7.499161,85.364792 10.118933,83.612808 14.208915,84.105461 
	C17.823517,84.540855 20.180996,86.840866 19.762196,90.461174 
	C19.377893,93.783295 17.827871,97.117630 13.573793,96.887245 
	C9.759480,96.680672 6.836676,95.055542 7.018847,90.099457 
z"/>
<path fill="#2D4356" opacity="1.000000" stroke="none" 
	d="
M506.349060,74.911072 
	C507.156067,78.395157 508.024597,81.943794 504.398102,83.564064 
	C502.465790,84.427406 499.491791,84.434372 497.578247,83.550262 
	C493.872070,81.837921 493.178375,77.462555 495.460785,74.259415 
	C497.835083,70.927299 502.180267,71.053024 506.349060,74.911072 
z"/>
<path fill="#2D4356" opacity="1.000000" stroke="none" 
	d="
M376.727234,72.305672 
	C379.179169,72.429184 381.600250,72.092850 383.251953,73.064484 
	C386.669098,75.074631 386.850372,78.462730 385.005524,81.706894 
	C383.205719,84.871788 380.448425,85.892448 377.072388,83.973602 
	C373.897675,82.169159 371.842865,79.750519 373.670593,75.902481 
	C374.282410,74.614357 375.439972,73.585434 376.727234,72.305672 
z"/>
<path fill="#0BCEB2" opacity="1.000000" stroke="none" 
	d="
M49.886520,24.358822 
	C49.645119,22.577190 49.645119,21.051296 49.645119,18.966820 
	C48.455200,18.704481 44.406498,19.899359 46.451485,15.192038 
	C47.654709,15.478034 48.881443,15.769620 49.990177,16.033157 
	C49.879784,14.181816 49.778610,12.485053 49.677437,10.788290 
	C51.114601,11.396339 52.551765,12.004389 54.424557,12.796748 
	C54.671036,12.472676 55.625755,11.217405 56.580475,9.962134 
	C57.094521,10.042580 57.608566,10.123025 58.122612,10.203470 
	C57.964977,11.881101 57.807343,13.558732 57.639648,15.343418 
	C58.842007,15.821179 60.588409,16.515118 62.334812,17.209055 
	C62.175850,17.726452 62.016884,18.243847 61.857918,18.761242 
	C60.408016,18.906963 58.958118,19.052683 58.224995,19.126366 
	C58.079346,20.873207 57.947460,22.454998 57.815571,24.036789 
	C56.360252,23.380281 54.904934,22.723774 53.382648,22.037058 
	C52.647247,22.619440 51.387585,23.616999 49.886520,24.358822 
z"/>
<path fill="#0BCEB2" opacity="1.000000" stroke="none" 
	d="
M248.754166,19.148619 
	C248.414581,20.389839 248.414581,21.517313 248.414581,23.820702 
	C246.911560,22.183706 246.304077,21.522091 245.548996,20.699699 
	C245.099762,21.472464 244.541794,22.432249 244.082947,23.221546 
	C239.283951,19.366758 241.706055,15.747868 242.581604,11.768594 
	C243.708923,12.641194 244.662796,13.379551 245.627899,14.126587 
	C245.823654,13.690373 246.128738,13.010506 246.433838,12.330639 
	C247.222351,12.705504 248.010849,13.080369 248.799362,13.455233 
	C246.262466,15.454138 254.773285,16.870155 248.754166,19.148619 
z"/>
<path fill="#2D4356" opacity="1.000000" stroke="none" 
	d="
M424.999451,194.442505 
	C429.056488,194.471878 430.147736,196.528946 428.179779,200.899353 
	C426.939941,198.953842 425.998657,196.871613 424.999451,194.442505 
z"/>
<path fill="#2D4356" opacity="1.000000" stroke="none" 
	d="
M118.940491,288.672455 
	C114.813736,289.043793 112.273415,287.154388 112.042908,282.278320 
	C114.283684,284.054352 116.526566,286.220093 118.940491,288.672455 
z"/>
<path fill="#2D4356" opacity="1.000000" stroke="none" 
	d="
M407.114746,258.451050 
	C410.379791,260.343170 411.285034,262.869080 407.489136,265.876190 
	C407.131805,263.625183 407.097961,261.258545 407.114746,258.451050 
z"/>
<path fill="#2D4356" opacity="1.000000" stroke="none" 
	d="
M129.355072,120.739532 
	C130.099411,115.752487 133.153931,116.405014 136.798828,118.537506 
	C134.560028,119.437866 132.134186,120.040466 129.355072,120.739532 
z"/>
<path fill="#2D4356" opacity="1.000000" stroke="none" 
	d="
M356.965881,285.668091 
	C355.383270,285.693787 353.638031,285.437317 351.529053,285.094910 
	C351.132996,283.938385 351.100586,282.867798 351.352844,281.388275 
	C351.637512,280.979309 352.110504,280.958496 352.110504,280.958496 
	C353.674744,282.434296 355.238953,283.910095 356.965881,285.668091 
z"/>
<path fill="#2D4356" opacity="1.000000" stroke="none" 
	d="
M164.613281,96.125290 
	C163.632401,98.211449 162.364197,100.476936 160.713425,102.777931 
	C161.662537,100.643829 162.994247,98.474220 164.613281,96.125290 
z"/>
<path fill="#2D4356" opacity="1.000000" stroke="none" 
	d="
M341.657776,305.072021 
	C343.597076,308.402435 341.685028,309.541718 338.253448,309.938782 
	C339.047546,308.387238 340.209351,306.814850 341.657776,305.072021 
z"/>
<path fill="#2D4356" opacity="1.000000" stroke="none" 
	d="
M362.869934,290.608246 
	C359.018890,293.378387 358.907684,289.956055 358.062012,287.251099 
	C359.594269,288.037262 361.148468,289.185211 362.869934,290.608246 
z"/>
<path fill="#2D4356" opacity="1.000000" stroke="none" 
	d="
M98.310600,184.709976 
	C98.442848,181.565948 100.037323,179.882095 103.781891,180.914383 
	C102.244225,182.269104 100.431885,183.440781 98.310600,184.709976 
z"/>
<path fill="#2D4356" opacity="1.000000" stroke="none" 
	d="
M130.798950,293.638611 
	C128.314575,296.941803 126.646385,295.242645 125.115952,292.250000 
	C126.874054,292.410828 128.711411,292.898468 130.798950,293.638611 
z"/>
<path fill="#2D4356" opacity="1.000000" stroke="none" 
	d="
M306.639221,334.160095 
	C309.005371,336.368256 308.658386,337.028564 304.425964,337.987122 
	C304.847534,336.785767 305.621033,335.570404 306.639221,334.160095 
z"/>
<path fill="#2D4356" opacity="1.000000" stroke="none" 
	d="
M169.348694,113.849731 
	C167.468857,111.444908 168.150299,109.787216 171.491119,109.042267 
	C171.090210,110.549530 170.344437,112.097252 169.348694,113.849731 
z"/>
<path fill="#2D4356" opacity="1.000000" stroke="none" 
	d="
M340.380096,324.899353 
	C338.490753,321.502197 341.336639,321.619690 343.748627,321.060486 
	C342.958832,322.273193 341.805573,323.505890 340.380096,324.899353 
z"/>
<path fill="#2D4356" opacity="1.000000" stroke="none" 
	d="
M349.000000,314.000000 
	C350.176514,313.241699 351.352997,312.483368 352.786255,311.898926 
	C352.237244,312.968536 351.431458,313.864258 350.164673,314.746765 
	C349.469116,314.489014 349.234558,314.244507 349.000000,314.000000 
z"/>
<path fill="#2D4356" opacity="1.000000" stroke="none" 
	d="
M362.178955,304.348083 
	C363.588684,304.454376 365.231415,304.810944 366.936340,305.501251 
	C365.469666,305.422791 363.940826,305.010590 362.178955,304.348083 
z"/>
<path fill="#2D4356" opacity="1.000000" stroke="none" 
	d="
M402.992584,248.420288 
	C405.580841,246.600830 405.752533,248.490784 405.797424,250.825073 
	C405.394165,251.593964 405.168854,251.848358 404.943573,252.102768 
	C404.310883,250.983353 403.678192,249.863937 402.992584,248.420288 
z"/>
<path fill="#2D4356" opacity="1.000000" stroke="none" 
	d="
M409.378693,292.890686 
	C407.485626,290.347260 409.069366,289.497833 411.759460,289.062988 
	C411.294983,290.268860 410.476837,291.497650 409.378693,292.890686 
z"/>
<path fill="#2D4356" opacity="1.000000" stroke="none" 
	d="
M118.692261,111.236443 
	C117.821548,112.195236 116.644569,113.226509 115.205139,114.080544 
	C116.090446,113.038506 117.238213,112.173714 118.692261,111.236443 
z"/>
<path fill="#2D4356" opacity="1.000000" stroke="none" 
	d="
M388.351990,305.849487 
	C389.506897,305.127899 391.006775,304.421417 392.781433,303.905518 
	C391.603119,304.685638 390.149994,305.275116 388.351990,305.849487 
z"/>
<path fill="#2D4356" opacity="1.000000" stroke="none" 
	d="
M414.370178,285.893341 
	C412.529358,283.538025 413.894226,282.561432 416.523071,282.037170 
	C416.119110,283.245117 415.380585,284.488586 414.370178,285.893341 
z"/>
<path fill="#2D4356" opacity="1.000000" stroke="none" 
	d="
M403.917114,298.292542 
	C401.610992,294.941162 404.872162,295.707245 406.756042,295.058716 
	C406.128662,296.067627 405.145355,297.094818 403.917114,298.292542 
z"/>
<path fill="#2D4356" opacity="1.000000" stroke="none" 
	d="
M146.677750,105.995605 
	C145.438904,108.663673 144.261536,107.724548 143.101700,105.460205 
	C144.127609,105.385170 145.247437,105.605301 146.677750,105.995605 
z"/>
<path fill="#2D4356" opacity="1.000000" stroke="none" 
	d="
M418.051849,186.318634 
	C419.238800,187.140884 420.588989,188.241074 421.949158,189.726578 
	C420.711121,188.940109 419.463104,187.768341 418.051849,186.318634 
z"/>
<path fill="#2D4356" opacity="1.000000" stroke="none" 
	d="
M108.093063,296.362183 
	C108.954155,296.795471 109.963524,297.492462 110.986237,298.523621 
	C110.080170,298.113800 109.160767,297.369873 108.093063,296.362183 
z"/>
<path fill="#2D4356" opacity="1.000000" stroke="none" 
	d="
M348.712952,314.075775 
	C349.234558,314.244507 349.469116,314.489014 349.899963,314.895416 
	C349.603027,315.626038 349.109772,316.194733 348.367371,316.900360 
	C348.220795,316.075348 348.323334,315.113464 348.712952,314.075775 
z"/>
<path fill="#2D4356" opacity="1.000000" stroke="none" 
	d="
M172.620514,86.990128 
	C172.070282,87.951256 171.273422,89.092453 170.209534,90.068863 
	C170.752975,88.992783 171.563416,88.081490 172.620514,86.990128 
z"/>
<path fill="#2D4356" opacity="1.000000" stroke="none" 
	d="
M406.641907,271.186584 
	C409.232727,272.239838 408.995575,273.203156 406.205994,273.927063 
	C406.056580,273.107056 406.229401,272.257782 406.641907,271.186584 
z"/>
<path fill="#2D4356" opacity="1.000000" stroke="none" 
	d="
M418.875977,253.671509 
	C417.082977,253.665588 415.514282,253.249512 417.842316,251.079956 
	C418.384583,251.757401 418.651093,252.550705 418.875977,253.671509 
z"/>
<path fill="#2D4356" opacity="1.000000" stroke="none" 
	d="
M105.912430,237.549088 
	C104.782784,237.472534 103.448471,237.142639 102.058479,236.488373 
	C103.237785,236.541260 104.472771,236.918503 105.912430,237.549088 
z"/>
<path fill="#2D4356" opacity="1.000000" stroke="none" 
	d="
M114.047775,170.639816 
	C113.317955,169.801300 112.520218,168.640594 111.896683,167.220306 
	C112.707199,168.079697 113.343529,169.198669 114.047775,170.639816 
z"/>
<path fill="#2D4356" opacity="1.000000" stroke="none" 
	d="
M313.692749,325.269012 
	C313.521698,326.047058 313.045013,326.901825 311.968323,327.878357 
	C310.947174,328.000122 310.526031,328.000183 310.104919,328.000244 
	C311.199005,327.115417 312.293060,326.230591 313.692749,325.269012 
z"/>
<path fill="#2D4356" opacity="1.000000" stroke="none" 
	d="
M106.884781,267.592743 
	C106.658974,266.757294 106.482536,265.525970 106.570465,264.153748 
	C106.867935,265.074188 106.901039,266.135529 106.884781,267.592743 
z"/>
<path fill="#2D4356" opacity="1.000000" stroke="none" 
	d="
M384.675232,293.146423 
	C384.088623,293.666046 383.178040,294.166931 382.140259,294.416870 
	C382.792419,293.819855 383.571838,293.473755 384.675232,293.146423 
z"/>
<path fill="#2D4356" opacity="1.000000" stroke="none" 
	d="
M309.964783,328.292358 
	C310.526031,328.000183 310.947174,328.000122 311.684143,328.000031 
	C311.178192,328.937592 310.356415,329.875153 309.209656,330.887573 
	C309.198029,330.169769 309.511322,329.377136 309.964783,328.292358 
z"/>
<path fill="#2D4356" opacity="1.000000" stroke="none" 
	d="
M148.697144,291.112274 
	C148.146439,291.793732 147.292679,292.514923 146.191101,293.069397 
	C146.760223,292.319122 147.577164,291.735565 148.697144,291.112274 
z"/>
<path fill="#2D4356" opacity="1.000000" stroke="none" 
	d="
M149.074860,119.395737 
	C150.135712,119.254196 151.437485,119.391640 152.851685,119.823303 
	C151.748001,119.969917 150.531876,119.822311 149.074860,119.395737 
z"/>
<path fill="#2D4356" opacity="1.000000" stroke="none" 
	d="
M120.319801,179.883240 
	C120.245667,179.341553 120.485970,178.846970 120.911575,178.146027 
	C121.783867,178.221512 122.470856,178.503342 124.574211,179.366257 
	C122.291260,179.693100 121.462746,179.811722 120.319801,179.883240 
z"/>
<path fill="#2D4356" opacity="1.000000" stroke="none" 
	d="
M402.618958,239.118591 
	C402.075195,239.329636 401.160522,239.493713 400.128662,239.411545 
	C400.757019,239.134064 401.502502,239.102844 402.618958,239.118591 
z"/>
<path fill="#2D4356" opacity="1.000000" stroke="none" 
	d="
M315.375702,339.009888 
	C315.032806,338.616760 314.970642,338.174927 314.908478,337.733093 
	C315.487396,337.747406 316.066315,337.761719 316.850403,337.936188 
	C316.589233,338.384583 316.122833,338.672852 315.375702,339.009888 
z"/>
<path fill="#2D4356" opacity="1.000000" stroke="none" 
	d="
M128.190109,306.310883 
	C128.892090,306.159882 129.821732,306.246643 130.870087,306.584534 
	C130.131790,306.739990 129.274780,306.644318 128.190109,306.310883 
z"/>
<path fill="#2D4356" opacity="1.000000" stroke="none" 
	d="
M404.991455,252.382614 
	C405.168854,251.848358 405.394165,251.593964 405.809723,251.169769 
	C406.083435,251.867340 406.166901,252.734680 406.076050,253.829010 
	C405.614319,253.591476 405.326813,253.126968 404.991455,252.382614 
z"/>
<path fill="#2D4356" opacity="1.000000" stroke="none" 
	d="
M108.342957,146.828079 
	C108.178139,146.119843 108.254898,145.185516 108.583481,144.131210 
	C108.751709,144.874817 108.668121,145.738403 108.342957,146.828079 
z"/>
<path fill="#2D4356" opacity="1.000000" stroke="none" 
	d="
M95.658134,145.172211 
	C95.822678,145.880386 95.745575,146.814499 95.416672,147.868500 
	C95.248749,147.124969 95.332619,146.261566 95.658134,145.172211 
z"/>
<path fill="#2D4356" opacity="1.000000" stroke="none" 
	d="
M396.509766,302.559448 
	C396.966187,302.064484 397.743073,301.457031 398.807800,300.952942 
	C398.340485,301.519836 397.585358,301.983398 396.509766,302.559448 
z"/>
<path fill="#2D4356" opacity="1.000000" stroke="none" 
	d="
M429.354156,239.916016 
	C429.574127,239.394089 430.044525,238.730789 430.801270,238.050369 
	C430.593231,238.613708 430.098907,239.194183 429.354156,239.916016 
z"/>
<path fill="#2D4356" opacity="1.000000" stroke="none" 
	d="
M423.465210,244.521652 
	C423.895447,243.809235 424.640930,242.972946 425.749542,242.088409 
	C425.335266,242.826019 424.557861,243.611908 423.465210,244.521652 
z"/>
<path fill="#2D4356" opacity="1.000000" stroke="none" 
	d="
M427.698853,217.135056 
	C427.777313,217.868118 427.608276,218.828247 427.178833,219.881653 
	C427.096100,219.103989 427.273743,218.233063 427.698853,217.135056 
z"/>
<path fill="#2D4356" opacity="1.000000" stroke="none" 
	d="
M350.694519,286.128845 
	C350.841827,286.854919 350.741058,287.809265 350.403076,288.876740 
	C350.259338,288.112274 350.352905,287.234711 350.694519,286.128845 
z"/>
<path fill="#2D4356" opacity="1.000000" stroke="none" 
	d="
M441.273193,206.868057 
	C440.883911,206.426239 440.650818,205.816818 440.625610,205.109558 
	C441.032166,205.574631 441.230774,206.137527 441.273193,206.868057 
z"/>
<path fill="#2D4356" opacity="1.000000" stroke="none" 
	d="
M124.131256,305.325195 
	C124.569267,305.202942 125.192024,305.304199 125.902687,305.620575 
	C125.432396,305.740021 124.874199,305.644348 124.131256,305.325195 
z"/>
<path fill="#2D4356" opacity="1.000000" stroke="none" 
	d="
M109.324341,141.868301 
	C109.202232,141.430496 109.303436,140.807892 109.619667,140.097351 
	C109.739014,140.567459 109.643333,141.125473 109.324341,141.868301 
z"/>
<path fill="#2D4356" opacity="1.000000" stroke="none" 
	d="
M214.126251,344.333740 
	C214.393173,343.809509 214.849533,343.496399 215.570068,343.094849 
	C215.328064,343.519257 214.821884,344.032043 214.126251,344.333740 
z"/>
<path fill="#2D4356" opacity="1.000000" stroke="none" 
	d="
M428.676514,212.132050 
	C428.798431,212.569809 428.696960,213.192291 428.380554,213.902649 
	C428.261444,213.432632 428.357300,212.874695 428.676514,212.132050 
z"/>
<path fill="#2D4356" opacity="1.000000" stroke="none" 
	d="
M110.297897,179.855392 
	C110.563126,179.504105 111.117943,179.173630 111.863770,178.970520 
	C111.565674,179.357315 111.076576,179.616760 110.297897,179.855392 
z"/>
<path fill="#2D4356" opacity="1.000000" stroke="none" 
	d="
M97.667091,169.933105 
	C97.420692,170.288239 96.890968,170.716583 96.153198,171.024185 
	C96.424683,170.604401 96.904221,170.305359 97.667091,169.933105 
z"/>
<path fill="#2D4356" opacity="1.000000" stroke="none" 
	d="
M336.714661,310.148010 
	C336.739990,310.331055 336.494965,310.534546 336.024902,310.838257 
	C336.034485,310.705719 336.249298,310.449036 336.714661,310.148010 
z"/>
<path fill="#2D4356" opacity="1.000000" stroke="none" 
	d="
M426.004272,175.773880 
	C425.867279,175.826599 425.620392,175.654953 425.224365,175.307297 
	C425.401764,175.157532 425.674805,175.296951 426.004272,175.773880 
z"/>
<path fill="#2D4356" opacity="1.000000" stroke="none" 
	d="
M138.283936,118.853394 
	C138.258041,118.670685 138.500778,118.469086 138.966858,118.169296 
	C138.957764,118.301613 138.745209,118.556084 138.283936,118.853394 
z"/>
<path fill="#2D4356" opacity="1.000000" stroke="none" 
	d="
M160.992599,125.233551 
	C161.131119,125.178513 161.378922,125.349365 161.776001,125.696762 
	C161.597427,125.850418 161.322952,125.712463 160.992599,125.233551 
z"/>
<path fill="#2D4356" opacity="1.000000" stroke="none" 
	d="
M402.773499,279.995178 
	C402.826355,280.132324 402.654602,280.379456 402.306702,280.775879 
	C402.156616,280.598267 402.296082,280.324921 402.773499,279.995178 
z"/>
<path fill="#2D4356" opacity="1.000000" stroke="none" 
	d="
M118.190659,240.007187 
	C118.042549,240.112900 118.021210,239.637711 118.011459,239.400208 
	C118.175537,239.305206 118.360825,239.437225 118.511307,239.601181 
	C118.534866,239.626877 118.400253,239.797745 118.190659,240.007187 
z"/>
<path fill="#2D4356" opacity="1.000000" stroke="none" 
	d="
M371.998901,293.775391 
	C371.863708,293.827087 371.618927,293.657135 371.226196,293.312897 
	C371.401398,293.165741 371.671722,293.304108 371.998901,293.775391 
z"/>
<path fill="#2D4356" opacity="1.000000" stroke="none" 
	d="
M352.005432,280.810730 
	C352.110504,280.958496 351.637512,280.979309 351.401123,280.988831 
	C351.409943,280.886597 351.655182,280.774780 352.005432,280.810730 
z"/>
<path fill="#000000" opacity="1.000000" stroke="none" 
	d="
M314.266785,243.345581 
	C321.619812,234.457184 328.807404,225.900604 335.905396,217.270309 
	C340.878693,211.223373 345.729736,205.075897 350.619507,198.993088 
	C356.488464,202.651321 356.599365,202.717590 353.267334,208.293442 
	C335.389740,238.209763 317.444733,268.085754 299.538971,297.985260 
	C291.332733,311.688263 283.293396,325.493622 274.904816,339.083649 
	C272.039337,343.725891 273.922729,348.360107 274.226654,352.817017 
	C274.994080,364.072540 276.625275,375.272491 278.024750,386.480438 
	C278.895050,393.450226 280.016266,400.388367 280.927246,407.353516 
	C281.140656,408.985352 280.958801,410.668854 280.958801,412.664062 
	C265.084869,412.664062 249.344467,412.664062 232.977310,412.664062 
	C233.379593,407.626434 233.655197,402.610962 234.207489,397.626190 
	C235.036453,390.144318 236.074219,382.685791 236.996490,375.214020 
	C238.319870,364.492706 239.867416,353.789368 240.775879,343.032471 
	C241.044617,339.850525 240.229630,336.084015 238.638351,333.317566 
	C227.755997,314.398407 216.549149,295.665680 205.417618,276.890167 
	C197.110352,262.878296 188.753418,248.895813 180.440231,234.887421 
	C179.867813,233.922836 179.476044,232.851044 179.014664,231.860016 
	C180.626038,230.557846 182.140427,229.334045 184.324570,227.569000 
	C204.400146,248.085938 224.550461,268.679260 245.530838,290.120880 
	C247.878418,262.809814 250.121384,236.715805 252.391281,210.308350 
	C255.361588,210.308350 258.419525,210.308350 261.598541,210.308350 
	C264.114655,239.355881 266.622925,268.312622 269.271576,298.890289 
	C284.709473,279.849731 299.386292,261.747833 314.266785,243.345581 
z"/>
<path fill="#000000" opacity="1.000000" stroke="none" 
	d="
M285.849396,449.549194 
	C266.983795,449.938690 247.953186,449.956146 228.454163,449.947510 
	C228.648712,446.430756 229.472610,442.961182 229.933212,439.444000 
	C230.486557,435.218628 230.730499,430.952728 231.139542,426.354614 
	C248.313950,426.354614 265.473480,426.354614 282.662903,426.354614 
	C283.682861,434.058624 284.683624,441.617920 285.849396,449.549194 
z"/>
</svg>